<?xml version="1.0" encoding="utf-8"?>
<!-- Generator: Adobe Illustrator 19.2.1, SVG Export Plug-In . SVG Version: 6.00 Build 0)  -->
<svg version="1.1" id="Слой_1" xmlns="http://www.w3.org/2000/svg" xmlns:xlink="http://www.w3.org/1999/xlink" x="0px" y="0px"
	 viewBox="0 0 712 712" style="enable-background:new 0 0 712 712;" xml:space="preserve">
<style type="text/css">
	.st0{fill:#4D88B5;stroke:#4D88B5;stroke-width:9.375000e-002;stroke-miterlimit:10;}
	.st1{fill:#356E9A;stroke:#356E9A;stroke-width:9.375000e-002;stroke-miterlimit:10;}
	.st2{fill:#38719E;stroke:#38719E;stroke-width:9.375000e-002;stroke-miterlimit:10;}
	.st3{fill:#F3BEBD;stroke:#F3BEBD;stroke-width:9.375000e-002;stroke-miterlimit:10;}
	.st4{fill:#F4E5E1;stroke:#F4E5E1;stroke-width:9.375000e-002;stroke-miterlimit:10;}
	.st5{fill:#F7E9E4;stroke:#F7E9E4;stroke-width:9.375000e-002;stroke-miterlimit:10;}
	.st6{fill:#010101;stroke:#010101;stroke-width:9.375000e-002;stroke-miterlimit:10;}
	.st7{fill:#040404;stroke:#040404;stroke-width:9.375000e-002;stroke-miterlimit:10;}
	.st8{fill:#4E89B5;stroke:#4E89B5;stroke-width:9.375000e-002;stroke-miterlimit:10;}
	.st9{fill:#F2BDBD;stroke:#F2BDBD;stroke-width:9.375000e-002;stroke-miterlimit:10;}
	.st10{stroke:#000000;stroke-width:9.375000e-002;stroke-miterlimit:10;}
	.st11{fill:#425A4D;stroke:#425A4D;stroke-width:9.375000e-002;stroke-miterlimit:10;}
	.st12{fill:#020202;stroke:#020202;stroke-width:9.375000e-002;stroke-miterlimit:10;}
	.st13{fill:#2A3D33;stroke:#2A3D33;stroke-width:9.375000e-002;stroke-miterlimit:10;}
	.st14{fill:#032100;stroke:#032100;stroke-width:9.375000e-002;stroke-miterlimit:10;}
	.st15{fill:#D3D3DF;stroke:#D3D3DF;stroke-width:9.375000e-002;stroke-miterlimit:10;}
	.st16{fill:#021C01;stroke:#021C01;stroke-width:9.375000e-002;stroke-miterlimit:10;}
	.st17{fill:#FFFFFF;stroke:#FFFFFF;stroke-width:9.375000e-002;stroke-miterlimit:10;}
	.st18{fill:#0E6800;stroke:#0E6800;stroke-width:9.375000e-002;stroke-miterlimit:10;}
	.st19{fill:#083500;stroke:#083500;stroke-width:9.375000e-002;stroke-miterlimit:10;}
	.st20{fill:#F4BEBD;stroke:#F4BEBD;stroke-width:9.375000e-002;stroke-miterlimit:10;}
	.st21{fill:#634E4D;stroke:#634E4D;stroke-width:9.375000e-002;stroke-miterlimit:10;}
	.st22{fill:#DDDDE9;stroke:#DDDDE9;stroke-width:9.375000e-002;stroke-miterlimit:10;}
	.st23{fill:#030202;stroke:#030202;stroke-width:9.375000e-002;stroke-miterlimit:10;}
	.st24{fill:#084600;stroke:#084600;stroke-width:9.375000e-002;stroke-miterlimit:10;}
	.st25{fill:#62AD00;stroke:#62AD00;stroke-width:9.375000e-002;stroke-miterlimit:10;}
	.st26{fill:#67D600;stroke:#67D600;stroke-width:9.375000e-002;stroke-miterlimit:10;}
	.st27{fill:#FDFDFD;stroke:#FDFDFD;stroke-width:9.375000e-002;stroke-miterlimit:10;}
	.st28{fill:#379B00;stroke:#379B00;stroke-width:9.375000e-002;stroke-miterlimit:10;}
	.st29{fill:#5AEA00;stroke:#5AEA00;stroke-width:9.375000e-002;stroke-miterlimit:10;}
	.st30{fill:#90F100;stroke:#90F100;stroke-width:9.375000e-002;stroke-miterlimit:10;}
	.st31{fill:#128700;stroke:#128700;stroke-width:9.375000e-002;stroke-miterlimit:10;}
	.st32{fill:#73CD00;stroke:#73CD00;stroke-width:9.375000e-002;stroke-miterlimit:10;}
	.st33{fill:#0E4E02;stroke:#0E4E02;stroke-width:9.375000e-002;stroke-miterlimit:10;}
	.st34{fill:#3AAB00;stroke:#3AAB00;stroke-width:9.375000e-002;stroke-miterlimit:10;}
	.st35{fill:#119400;stroke:#119400;stroke-width:9.375000e-002;stroke-miterlimit:10;}
	.st36{fill:#D0D0DD;stroke:#D0D0DD;stroke-width:9.375000e-002;stroke-miterlimit:10;}
	.st37{fill:#021E01;stroke:#021E01;stroke-width:9.375000e-002;stroke-miterlimit:10;}
	.st38{fill:#032900;stroke:#032900;stroke-width:9.375000e-002;stroke-miterlimit:10;}
	.st39{fill:#083600;stroke:#083600;stroke-width:9.375000e-002;stroke-miterlimit:10;}
	.st40{fill:#0E6B00;stroke:#0E6B00;stroke-width:9.375000e-002;stroke-miterlimit:10;}
	.st41{fill:#074400;stroke:#074400;stroke-width:9.375000e-002;stroke-miterlimit:10;}
	.st42{fill:#80C700;stroke:#80C700;stroke-width:9.375000e-002;stroke-miterlimit:10;}
	.st43{fill:#319B09;stroke:#319B09;stroke-width:9.375000e-002;stroke-miterlimit:10;}
	.st44{fill:#C0E5AE;stroke:#C0E5AE;stroke-width:9.375000e-002;stroke-miterlimit:10;}
	.st45{fill:#67D700;stroke:#67D700;stroke-width:9.375000e-002;stroke-miterlimit:10;}
	.st46{fill:#5DBA00;stroke:#5DBA00;stroke-width:9.375000e-002;stroke-miterlimit:10;}
	.st47{fill:#0F5100;stroke:#0F5100;stroke-width:9.375000e-002;stroke-miterlimit:10;}
	.st48{fill:#8FF100;stroke:#8FF100;stroke-width:9.375000e-002;stroke-miterlimit:10;}
	.st49{fill:#0E4D03;stroke:#0E4D03;stroke-width:9.375000e-002;stroke-miterlimit:10;}
	.st50{fill:#129400;stroke:#129400;stroke-width:9.375000e-002;stroke-miterlimit:10;}
	.st51{fill:#4784B3;stroke:#4784B3;stroke-width:9.375000e-002;stroke-miterlimit:10;}
	.st52{fill:#000001;stroke:#000001;stroke-width:9.375000e-002;stroke-miterlimit:10;}
	.st53{fill:#E5E5E5;stroke:#E5E5E5;stroke-width:9.375000e-002;stroke-miterlimit:10;}
	.st54{fill:#0A0F0D;stroke:#0A0F0D;stroke-width:9.375000e-002;stroke-miterlimit:10;}
	.st55{fill:#356E99;stroke:#356E99;stroke-width:9.375000e-002;stroke-miterlimit:10;}
	.st56{fill:#CECECE;stroke:#CECECE;stroke-width:9.375000e-002;stroke-miterlimit:10;}
	.st57{fill:#FEFEFE;stroke:#FEFEFE;stroke-width:9.375000e-002;stroke-miterlimit:10;}
	.st58{fill:#F1BCBB;stroke:#F1BCBB;stroke-width:9.375000e-002;stroke-miterlimit:10;}
	.st59{fill:#F0BCBB;stroke:#F0BCBB;stroke-width:9.375000e-002;stroke-miterlimit:10;}
	.st60{fill:#F1BDBC;stroke:#F1BDBC;stroke-width:9.375000e-002;stroke-miterlimit:10;}
	.st61{fill:#EFEFEF;stroke:#EFEFEF;stroke-width:9.375000e-002;stroke-miterlimit:10;}
</style>
<g>
	<path class="st0" d="M395,23.8c35.3-6.6,71.8-1,105.8,9.5c19.2,5.8,34.4,20.7,44.1,38c0.3-11.1-6.7-20.4-13.7-28.3
		c8.6,4.5,13.3,13.8,16.4,22.6c3.2-5.3,2.5-11.6,2-17.4c3.6,6.2,2.1,13.6,1.4,20.3c9.5-3.5,20.5-5,30-0.8c-9.6-1.7-21.3-3-29.3,3.8
		c5.1-0.5,10.3-0.9,15.3,0.3c-5.9-0.4-12,0-17.4,2.8c4.9,1.3,9.7,2.9,14.1,5.4c-5.1,0.5-9.6-2.8-14.8-2.5
		c12.9,6.3,25.5,13.8,35.8,24c6.3,6.5,11.7,14.2,13.9,23.1c3.9,14.8,8.1,29.6,9.6,44.8c-1.7-1-3.4-1.9-5-2.9
		c3.2,16.4,4.1,33.3,1.7,49.9c-9.7-15.5-11.1-34.4-11.9-52.2c-7.5,11.6-8,25.9-9.1,39.2c-7.5-13.2-14.6-26.8-24.1-38.8
		c-5-5-7.1-11.9-9.7-18.3c-2.2-5.6-3.5-11.5-5.7-17.1c-0.1,8,1.3,16,1.7,24c0.7,12.8,2.7,25.6,3.1,38.4c-3.6-3.1-5.5-7.5-8-11.4
		c0.2,5.4,1.3,10.7,1.9,16c1.6,12.3,2.2,24.7,1.8,37c-0.1,2.4-0.5,4.7-1,7c-1.7-2.5-3.2-5.2-4.7-7.9c0.9,12.3,0.6,24.6,0.5,36.9
		c-1.4,23.8-4.5,47.7-12.2,70.4c-2.6,7.5-5.1,15.2-9.4,21.9c0.2-5.2,1.7-10.1,2.4-15.3c5.3-35.1,6.3-70.6,5.5-106
		c0-3.1,0-6.3-0.6-9.3c-0.4,1.1-0.7,2.2-0.9,3.3c-3.8,30.4-8.6,60.7-13.4,91c-0.7,3.8,0.5,7.8-1,11.4c-0.1-0.9-0.2-2.6-0.3-3.4
		c-1,3.5-1.2,7.5-3.7,10.4c-0.3-6.3,0.1-12.7-0.2-19c0-8.4-0.2-16.7-0.9-25c-0.1-1.9-0.2-3.8-0.3-5.6c-0.2-5.3-0.5-10.5-1-15.8
		c-1.4,4-2.4,8.2-3.7,12.2c-0.5,1.6-1.1,3.2-1.6,4.8c-0.4,1.1-0.7,2.1-1.1,3.1c-3.2,8.6-6.5,17.2-11,25.2c0.7-5.8,3.2-11.1,4.7-16.6
		c5.9-20.2,9.3-41.1,12.5-61.9c3.2-22.6,5.6-45.2,7.4-67.9c0.4-5,1-10,0.9-15c-5.1,18.1-12.1,35.7-19.7,53c-1.1,2.1-0.5,4.4,0,6.6
		c-2.9,6.1-6.1,12-9.7,17.6c-7.4,11.4-15.5,22.4-23.9,33.1c-0.5,0.6-1.4,1.8-1.8,2.4c-11.1,13.9-22.3,27.7-34.3,40.9
		c0.5-1.6,0.9-3.3,1.7-4.7c14.1-22.6,25.6-46.7,37.5-70.5c3.5-6.9,6.8-13.9,10-20.9c3.1-6.4,6.6-12.7,8.7-19.6
		c-4.5,3.6-8.1,8.5-13.2,11.4c3.6-12,6.8-24.1,8-36.5c-8.3,12.2-18.5,22.9-29.3,32.9c-10.6,9.5-21.2,19-32.7,27.4
		c3.6-13.3,13-23.9,20.4-35.1c-2.8,2-5.3,4.3-7.4,7c-17.6,20.4-32.9,42.7-48.2,64.8c-2.9,4.1-5.2,8.6-7.6,13c-0.9-0.3-1.7-0.7-2.6-1
		c2.6-7.5,4.6-15.2,7.7-22.6c1.6-4.2,3.6-8.2,5.4-12.3c2-1.7,4-3.6,5.2-6c5-9.4,11.3-18,17.4-26.6c9-12.8,18.8-25.1,28.6-37.3
		c0.9-1.2,1.7-2.4,2.4-3.6c-5.9,4.7-10.9,10.5-16.3,15.7c-20.2,20.8-39.5,42.9-53.3,68.6c-2.5,4.3-3.7,9.3-7,13.2
		c1-9.8,3.5-19.4,6-28.9c0.3-1.1,0.6-2.2,1-3.2c1.1-3.3,2.2-6.6,3.3-9.9c3.1-8.1,6.6-16.1,11.2-23.5c2.9-2.9,4.9-6.4,7.2-9.7
		c10.4-13.9,21.4-27.2,32.4-40.6c2.6-3.3,5.7-6.2,7.7-9.9c-8,5-14.4,12.1-21.5,18.2c-26.1,25.5-48.5,55.6-62.5,89.5
		c-1,2.6-2.8,5.3-1.9,8.2c-1.2,3.2-2.5,6.4-3.9,9.5c-0.4,0-1.1-0.1-1.5-0.1c0-10.6,2.2-21.2,5.6-31.2c0.6-1.7,1.2-3.5,1.9-5.2
		c0.8-2.2,1.7-4.4,2.6-6.6c2.6-6.2,5.7-12.2,8.9-18.2c5.5-8.1,10.6-16.5,16-24.7c2.6-4.6,6-8.7,8.1-13.5c-4.4,1.9-8,5-11.9,7.7
		c-25.7,19.4-47,45.3-58.6,75.5c-1.9,4.4-2.7,9.4-5.2,13.6c-0.2-4.3-0.1-8.6-0.1-12.9c0.5-5.4,1.7-10.6,3.4-15.8
		c-4.4,3.4-7.4,8-10.7,12.4c-11.8,17.6-19.2,37.6-25.4,57.7c-2,5.4-2.8,11.3-5,16.6c-2.3-19.2-0.2-38.7,3.9-57.5
		c-4,3.2-6.5,7.7-8.5,12.3c-4.7,11.3-6.2,23.6-6.3,35.7c-0.2,32.4,7.7,64.2,17,95c-1.6,0.4-3.3,0.8-4.9,1.2c-2.8,1.2-3.4-2.1-4.1-4
		c-4.8-13.8-8.7-28-13-42c-1.6-15.1-3.2-30.2-3.9-45.4c-1.1-11.3-0.5-22.7-0.6-34c0-1.5-0.4-2.9-0.8-4.3
		c-1.8,10.4-2.2,20.9-2.8,31.4c-0.6,23.3-0.3,46.8,4.7,69.7c0.6,3,1.8,6,0.8,9c-1.8-5.3-3.4-10.6-4.6-16c-1.3-5.2-1.9-10.6-3-15.9
		c-2.3,6.3-2.2,13.2-1.2,19.8c0.4,3,1.7,5.9,1.1,8.9c-2.9-3.9-4.4-8.6-5.9-13.2c-2.1-18.8,0.5-37.7,1.9-56.4
		c-1.8,5.2-2.6,10.6-3.6,16c-2.7,15.2-4.8,30.6-4.5,46.1c-0.1,12.8,0.3,25.9,4.2,38.2l-0.8,0.2c-0.5,0-1.5-0.1-2-0.1
		c-4.5-8.2-6.8-17.4-8.6-26.4c-0.8,2.5-1.4,5-1.8,7.6c-0.6-3.8-0.9-7.6-0.8-11.4c-0.2-38.4,7.2-76.4,17.8-113.1
		c2.9-9.7,5.8-19.4,9.4-28.8c4.2-11.1,8-22.3,11.3-33.7c1.7-6.8,3.6-13.7,2.6-20.7c-4.7,5.3-7.8,11.8-11.3,17.9
		c-9.9,17.7-17.8,36.4-24.5,55.5c-9.9,29.9-16.2,61.2-15.5,92.8c-0.2,15.8,1.7,31.7,5,47.2c0.7,3.4,2.2,6.8,1.8,10.4
		c-6.9-14.8-10.8-30.9-13.1-47c-0.3-3.1-0.6-6.2-0.9-9.2c-0.7-6.2-0.9-12.4-1-18.7c-0.1-9.8,0.5-19.5,1.1-29.2
		c0.4-3.9,0.9-7.8,1.3-11.7c0.7-5.5,1.4-10.9,2.3-16.4c0.8-4.1,1.3-8.1,2.2-12.2c0.2-0.9,0.4-1.9,0.5-2.8c3-14.7,6.5-29.3,11.2-43.5
		c1.8-4.8,0-9.8,0.4-14.7c0.8-19.4,5.2-38.5,10.6-57.1c1.3-3,2.7-6.1,3.9-9.2c-3.3,2-6.1,4.7-8.7,7.4c-17.9,17.3-32.5,37.9-45.5,59
		l1.4-0.2c-4.2,5.9-8,12.1-11.8,18.2c0.8-4.6,3.3-8.6,5.2-12.8c11.8-23.6,25.5-46.2,39.8-68.4c21.9-33.8,49-64.7,82.2-87.7
		C324.1,42.4,359.3,30.2,395,23.8 M497.9,56.3c8.7,5.2,18.8,8.4,26.1,15.8c0.2-4-2-7.6-4.7-10.3C513.5,56.8,505.4,55.5,497.9,56.3
		 M324.4,75.6c-7,3.6-13.3,8.5-18.4,14.6c-7.3,8.2-13.3,17.8-17.2,28.1c3.5-2.6,5.7-6.5,8.6-9.7c8.2-9.5,16.3-19.1,25.4-27.6
		c2.5-2.3,5.4-4.3,7.4-7.1C328.3,74.1,326.2,74.6,324.4,75.6 M250,134.1c-3.6,6.4-8.6,12.2-10.6,19.4c-4.6,15.4-9.1,30.8-11.8,46.6
		c-0.5,2.3-0.6,4.7-0.5,7.1c19.7-39,41.8-76.7,65.4-113.5c0.7-1.1,1.1-2.3,1.5-3.5C275.5,100.1,261.8,116.9,250,134.1 M553.9,93.2
		c8.3,4.8,15.7,11,21.3,18.8c2.5,2.9,4.2,6.4,6.7,9.3c-1.4-8.3-7.3-15.3-13.5-20.6C564.1,97.3,559.4,93.7,553.9,93.2 M336.5,110.6
		c-7.4,6.2-14.1,13.1-20.7,20.2c-34.3,38.6-53.2,89.2-57.4,140.3c2.4-3.2,3.3-7.2,4.9-10.8c1.8-5.1,4.4-9.9,5.6-15.2
		c8.2-45.3,31.2-86.7,60.3-121.9c5.3-6.7,11.7-12.6,17-19.4C342.5,105.4,339.6,108.2,336.5,110.6 M563.2,136.2
		c4.1,9.1,9,17.7,12.9,26.9c2.5,4.5,3.7,9.6,6.5,14c0.4-10-0.4-20.3-3.9-29.7C576.4,140.8,569.4,137.6,563.2,136.2L563.2,136.2z"/>
	<path class="st1" d="M497.9,56.3c7.4-0.8,15.6,0.4,21.3,5.5c2.7,2.7,4.9,6.3,4.7,10.3C516.8,64.7,506.6,61.5,497.9,56.3L497.9,56.3
		z"/>
	<path class="st1" d="M324.4,75.6c1.8-1,3.9-1.5,5.9-1.8c-2,2.8-4.9,4.7-7.4,7.1c-9.2,8.5-17.3,18.1-25.4,27.6
		c-2.9,3.3-5.1,7.1-8.6,9.7c3.9-10.3,9.9-19.8,17.2-28.1C311.1,84.1,317.5,79.3,324.4,75.6L324.4,75.6z"/>
	<path class="st1" d="M548.9,77.3c5.1-0.3,9.6,3,14.8,2.5c5.9,2.8,11.6,6.1,17.3,9.2c15.5,8.9,29.4,21.6,37.1,38
		c4.4,11.7,8.2,23.7,9.4,36.2c0.2,7.8,1.8,15.4,3.6,22.9c1.5,5.9,2.7,12,5.3,17.6c7.4,14.3,12.1,29.8,16.1,45.3
		c0.7,2.7,1.2,5.5,1.5,8.3c-1.8-2.6-3.1-5.4-4.5-8.2c0.6,18.9,4,37.6,6,56.3c-0.3,0.2-0.9,0.7-1.2,1c-7.3-16.9-14.1-34-20.5-51.2
		c-1.8-4.8-3.4-9.7-5.6-14.2c-0.1,4.1,0.4,8.3,0.4,12.4c-0.7,8.9,0.3,17.9,1.1,26.8c1.5,14.5,3.1,29.1,5.1,43.5
		c1.4,10.4,3.4,20.9,3.6,31.4c0.1,8.1,0.3,16.3-0.3,24.4c-2.1-7.1-2.3-14.9-5.6-21.6c-0.3,19.4-1.9,38.8-3.2,58.1
		c-0.1,1.6-0.5,3.2-1.1,4.7c-5.1-21-10.4-41.9-16.5-62.6c0,1.8,0,3.6,0.1,5.4c-1.3,1.7-1.9,3.8-2.3,5.8c-2.1,11.1-4,22.2-7.2,33
		c-3,8.9-5.2,18.1-7.8,27.1c-1.1,5-3.6,9.9-2.9,15.2c-1.8,5.5-3.7,11-6,16.3c5.1-17.6,4.4-36.2,3.2-54.3c-0.7-6.9-1.5-13.9-3.2-20.7
		c-2.4,15.8-4.8,31.7-9.5,47c-3.1,9.9-5.8,20.2-11.2,29.2c1.3-6.2,3.5-12.2,4.4-18.6c0.1-0.9,0.3-1.8,0.5-2.8
		c2.3-11.8,3.7-23.9,2.9-35.9c-2,8.5-5.7,16.5-7.9,24.9l-0.9,0.1c0-0.3,0.1-0.9,0.2-1.2c0.6-4.2,0.8-8.5,0.3-12.8
		c0.5,0.7,1,1.5,1.5,2.2c0.9-5.7,1.3-11.4,0.9-17.2c-0.2-3.5-1-7.2,1.1-10.3c6.4-11.4,10-23.9,13.8-36.3c2.8-7.6,2.2-15.8,1.6-23.7
		c-2.5,4.2-4,8.9-6,13.4c-6.4,14.4-13,28.8-19.7,43.1c0.3-5.4,2.2-10.6,2.8-16c2.1-15.5,2.6-31.3,1.5-47
		c-5,12.4-10.5,24.7-17.1,36.4c-2.8,5-4.9,10.3-8.3,14.8c-1.1-3.8-1.8-7.7-2.8-11.5c-2.4,3.9-2.9,8.6-4.8,12.7
		c-9,22-18.8,43.6-29.5,64.8c0.1-5.1,1.2-10.1,0.9-15.2c-6.8,11.5-13.4,23.1-20.5,34.5c-2.4,4.3-5.7,8.2-7.5,12.9
		c8.7-9.6,14.7-21.3,22.8-31.3c-3.8,15.7-12,30-18,44.9l1,0.4c-9.2,11.5-18.5,22.9-27.9,34.1c-2.2-2.5-4.6-5-7.9-6.1
		c3.8-6.8,8-13.4,11.3-20.4c-7.2,5.5-13.7,11.9-20.7,17.6c-1.1,0.8-2.4,1.5-3.6,2.2c-2.6-7.6-4.9-15.2-7.4-22.8c0.4-2,1-3.9,1.9-5.6
		c4.5-8.9,8.9-17.9,13.5-26.8c3.6-6.6,7.1-13.2,10.8-19.7l0.1,1.6c5.6-3.9,10.4-8.7,15.8-12.7c3.8-3.3,8.1-5.9,11.6-9.4
		c3.5-4.2,4.7-9.8,6.1-15c1.1-4.9,3-9.5,4.5-14.3c-6.6,6.7-10.9,15-16.5,22.4c-5,6.9-10.4,13.6-15.5,20.4c-1.5,2-3.3,3.7-5.1,5.3
		c0.8-2.1,1.6-4.3,2.5-6.4c2.5-6.2,5.2-12.4,6.7-19c0.1-0.4,0.4-1.4,0.5-1.8c6.2-7,13.7-12.9,18.8-21c7.8-9.2,15.5-18.6,22.8-28.1
		c0.3-0.2,0.9-0.6,1.2-0.8c1.2,1.4,2.3,2.8,3.5,4.1c-0.3-2-0.7-4-1-5.9c0.6,0.5,2,1.6,2.6,2.1c-0.2-0.8-0.5-2.3-0.7-3.1
		c1.3,1.1,2.5,2.1,3.8,3.2c-1.4-2.7-2.8-5.5-3.6-8.5c1.2,0.8,2.3,1.6,3.5,2.5c-0.7-2.1-1.4-4.3-2-6.4c1.6,1,3.2,2.1,4.8,3.2
		c-1.6-2.3-3.1-4.6-4.6-6.8c1-2.9,1.9-5.9,2.7-8.9c1.4-3.7,0.3-7.6,1-11.4c4.8-30.3,9.6-60.6,13.4-91c0.2-1.1,0.5-2.2,0.9-3.3
		c0.6,3.1,0.6,6.2,0.6,9.3c0.8,35.4-0.1,71-5.5,106c-0.7,5.1-2.1,10.1-2.4,15.3c4.3-6.7,6.9-14.4,9.4-21.9
		c7.8-22.7,10.8-46.6,12.2-70.4c0.1-12.3,0.4-24.6-0.5-36.9c1.4,2.7,3,5.4,4.7,7.9c0.5-2.3,0.9-4.6,1-7c0.4-12.4-0.2-24.8-1.8-37
		c-0.6-5.3-1.7-10.6-1.9-16c2.5,3.9,4.3,8.4,8,11.4c-0.5-12.8-2.4-25.6-3.1-38.4c-0.4-8-1.7-16-1.7-24c2.1,5.6,3.5,11.5,5.7,17.1
		c2.6,6.4,4.7,13.3,9.7,18.3c9.5,11.9,16.6,25.5,24.1,38.8c1.1-13.3,1.6-27.6,9.1-39.2c0.8,17.8,2.2,36.7,11.9,52.2
		c2.4-16.5,1.5-33.5-1.7-49.9c1.7,1,3.3,1.9,5,2.9c-1.5-15.2-5.7-30-9.6-44.8c-2.1-8.9-7.5-16.7-13.9-23.1
		C574.5,91.1,561.9,83.6,548.9,77.3L548.9,77.3z"/>
	<path class="st1" d="M250,134.1c11.8-17.1,25.5-34,44.1-43.9c-0.4,1.2-0.8,2.4-1.5,3.5c-23.6,36.8-45.7,74.5-65.4,113.5
		c-0.2-2.4,0-4.8,0.5-7.1c2.7-15.8,7.3-31.3,11.8-46.6C241.5,146.3,246.4,140.4,250,134.1L250,134.1z"/>
	<path class="st2" d="M553.9,93.2c5.6,0.5,10.3,4.1,14.5,7.5c6.2,5.3,12.1,12.3,13.5,20.6c-2.5-2.9-4.2-6.4-6.7-9.3
		C569.6,104.2,562.1,98,553.9,93.2L553.9,93.2z"/>
	<path class="st1" d="M336.5,110.6c3.1-2.4,6-5.2,9.7-6.8c-5.3,6.8-11.6,12.7-17,19.4c-29.1,35.1-52.2,76.6-60.3,121.9
		c-1.2,5.3-3.8,10.1-5.6,15.2c-1.6,3.6-2.5,7.6-4.9,10.8c4.2-51.1,23.1-101.8,57.4-140.3C322.4,123.8,329.1,116.8,336.5,110.6
		L336.5,110.6z"/>
	<path class="st1" d="M563.2,136.2c6.2,1.4,13.2,4.6,15.5,11.2c3.5,9.4,4.3,19.7,3.9,29.7c-2.8-4.4-4-9.5-6.5-14
		C572.2,153.9,567.3,145.3,563.2,136.2L563.2,136.2z"/>
	<path class="st1" d="M404.9,165c7.1-6.1,13.5-13.2,21.5-18.2c-1.9,3.8-5.1,6.7-7.7,9.9c-11,13.4-22.1,26.7-32.4,40.6
		c-2.3,3.3-4.3,6.9-7.2,9.7c-9.4,9.2-17.5,19.6-24.7,30.6c-0.9,1.5-1.8,2.9-2.8,4.4c-4.2,6.6-7.7,13.6-11.1,20.7
		c-0.9-2.9,0.8-5.6,1.9-8.2C356.4,220.6,378.7,190.6,404.9,165L404.9,165z"/>
	<path class="st1" d="M223.1,155.2c2.7-2.8,5.4-5.4,8.7-7.4c-1.2,3.1-2.5,6.1-3.9,9.2c-17.1,18.4-33.8,37.1-49,57.1l-1.4,0.2
		C190.6,193.1,205.2,172.6,223.1,155.2L223.1,155.2z"/>
	<path class="st1" d="M511.6,162.1c0.2,5-0.4,10-0.9,15c-1.8,22.7-4.3,45.4-7.4,67.9c-3.2,20.8-6.6,41.6-12.5,61.9
		c-1.5,5.5-4,10.8-4.7,16.6c-0.5,1-1,2-1.5,3c-0.5-0.3-1.4-0.8-1.8-1.1c2.3-11.9,4.2-23.9,5.9-35.9c0.3-1.9,0.5-3.8,0.8-5.7
		c0.9-6.7,1.8-13.4,2.2-20.1c1.4-13.9,2.9-28.2,0.2-42c-0.5-2.1-1.1-4.5,0-6.6C499.5,197.8,506.5,180.3,511.6,162.1L511.6,162.1z"/>
	<path class="st1" d="M366.4,180.5c3.8-2.8,7.5-5.9,11.9-7.7c-2.1,4.8-5.5,8.9-8.1,13.5c-5.4,8.2-10.6,16.5-16,24.7
		c-8.2,7.3-15.6,15.6-22.6,24c-1.5,1.8-3,3.5-4.4,5.3c-8.7,10.5-16.3,21.9-24.4,32.8c0-0.9,0-2.6,0-3.5c2.5-4.2,3.3-9.1,5.2-13.6
		C319.4,225.8,340.7,199.9,366.4,180.5L366.4,180.5z"/>
	<path class="st1" d="M417.8,190.9c5.4-5.3,10.4-11,16.3-15.7c-0.8,1.2-1.5,2.5-2.4,3.6c-9.7,12.3-19.5,24.5-28.6,37.3
		c-6.2,8.6-12.5,17.2-17.4,26.6c-1.2,2.4-3.2,4.3-5.2,6c-4.7,4.1-8.3,9.2-11.8,14.3c-3.7,5.4-7.3,10.9-10.3,16.8
		c-0.5-0.2-1.4-0.6-1.9-0.8c0.3-2.2,0.7-4.3,1-6.4c3.3-3.8,4.5-8.8,7-13.2C378.3,233.8,397.7,211.7,417.8,190.9L417.8,190.9z"/>
	<path class="st1" d="M445.6,207.7c10.8-10,21.1-20.7,29.3-32.9c-1.2,12.5-4.4,24.6-8,36.5c5.1-2.9,8.6-7.8,13.2-11.4
		c-2.1,6.8-5.7,13.1-8.7,19.6c-3.2,7-6.5,14-10,20.9c-11.9,23.8-23.4,47.9-37.5,70.5c-0.9,1.5-1.2,3.1-1.7,4.7
		c-3.4,3.8-6.4,8-10.2,11.5c10.6-17.6,20.9-35.5,29.1-54.5c5.8-12.3,9.3-25.4,12.6-38.5c1.3-5.4,2.8-10.8,3.2-16.3
		c-5.7,8.5-12.1,16.5-20.6,22.4c-10.8,7.9-21.1,16.3-31.8,24.4c-11,8.1-20.9,17.8-28.4,29.2c-3.6-2.8-7.1-5.7-10.1-9.2
		c2.9,0.8,5.9,1.5,8.8,2c-1.7-0.7-3.3-1.4-5-2c2.4-4.4,4.8-8.8,7.6-13c15.3-22.1,30.6-44.4,48.2-64.8c2.2-2.6,4.6-5,7.4-7
		c-7.4,11.3-16.8,21.8-20.4,35.1C424.4,226.7,435,217.2,445.6,207.7L445.6,207.7z"/>
	<path class="st1" d="M246.6,213.7c3.5-6.1,6.6-12.6,11.3-17.9c1.1,7-0.9,14-2.6,20.7c-3.3,11.4-7.1,22.7-11.3,33.7
		c-3.6,9.4-6.5,19.2-9.4,28.8c-10.6,36.7-18,74.7-17.8,113.1c-0.1,3.8,0.1,7.6,0.8,11.4c0,7.2,1.1,14.3,2.4,21.4
		c-0.9,0.2-2.6,0.6-3.4,0.8c-1.2-1.9-2.3-4-3.2-6.1c0.5-3.6-1.1-7-1.8-10.4c-3.4-15.5-5.2-31.3-5-47.2c-0.6-31.6,5.7-62.9,15.5-92.8
		C228.9,250.1,236.8,231.4,246.6,213.7L246.6,213.7z"/>
	<path class="st3" d="M354.4,237.7c7.2-10.9,15.3-21.4,24.7-30.6c-4.5,7.4-8,15.4-11.2,23.5c-2.8,2.5-4,6.3-6.7,8.9
		C358.9,238.9,356.7,238.3,354.4,237.7L354.4,237.7z"/>
	<path class="st3" d="M331.5,235c7-8.5,14.4-16.7,22.6-24c-3.2,6-6.2,12-8.9,18.2l-0.3-1.2c-2.6,2.2-4.8,4.8-7,7.4
		C335.8,235.2,333.7,235.1,331.5,235L331.5,235z"/>
	<path class="st3" d="M436.4,240.2c8.4-5.9,14.9-13.9,20.6-22.4c-0.4,5.6-2,10.9-3.2,16.3c-3.3,13.1-6.8,26.3-12.6,38.5
		c0-2.1,0-4.2,0.3-6.3c1.7-9.7,3-19.6,4.4-29.4C442.7,238.3,439.7,239.7,436.4,240.2L436.4,240.2z"/>
	<path class="st3" d="M482.2,239.3c3.6-5.7,6.9-11.6,9.7-17.6c2.7,13.9,1.2,28.1-0.2,42C488.2,255.7,486.6,246.9,482.2,239.3
		L482.2,239.3z"/>
	<path class="st4" d="M338,235.3c2.2-2.6,4.4-5.2,7-7.4l0.3,1.2c-0.9,2.2-1.8,4.4-2.6,6.6C341.1,235.6,339.5,235.5,338,235.3
		L338,235.3z"/>
	<path class="st5" d="M361.2,239.5c2.7-2.6,3.9-6.4,6.7-8.9c-1.1,3.3-2.3,6.6-3.3,9.9C363.4,240.2,362.3,239.8,361.2,239.5
		L361.2,239.5z"/>
	<path class="st6" d="M327.1,240.3c1.5-1.8,3-3.5,4.4-5.3c2.1,0.1,4.3,0.2,6.4,0.4c1.6,0.1,3.1,0.2,4.7,0.4
		c-0.7,1.7-1.3,3.4-1.9,5.2c-2.8-0.2-5.5-0.4-8.3-0.5C330.7,240.4,328.9,240.3,327.1,240.3L327.1,240.3z"/>
	<path class="st5" d="M436.4,240.2c3.3-0.5,6.4-1.9,9.4-3.2c-1.4,9.8-2.6,19.6-4.4,29.4c-0.3,2.1-0.3,4.2-0.3,6.3
		c-8.1,18.9-18.5,36.8-29.1,54.5c3.8-3.5,6.8-7.6,10.2-11.5c12-13.1,23.2-27,34.3-40.9c11,4.3,21.8,9.1,32.2,14.8
		c-1.7,12-3.6,24-5.9,35.9c-6.1-3.6-12.7-6.8-19.8-7.6c-8.1-0.9-16.1-2.3-24.2-3.4c1,0.6,2.9,1.9,3.9,2.5
		c-6.2,1.1-12.4,2.5-18.8,2.1c1.9,0.5,3.9,0.8,5.8,1.1l0.1,0.8c-1,0.4-3,1.2-4,1.6c4.4,0,8.8-0.6,13.2-0.8c-0.7,1.8-1.4,3.6-2.1,5.5
		c0.5,0,1.5,0,2.1-0.1c-3.6,1.8-3.6,6.3-4.5,9.7c-1.4,8.1-3,17.2,1.3,24.7l-0.7-0.5c3.8,5.8,9.5,10.2,15.5,13.4
		c4.9,3,10.7,4.5,16.5,4.2c4.9-0.5,8.8-4.3,12.9-6.6c6.8-3,13.4-6.4,19.8-10.2c-7.3,9.6-15,19-22.8,28.1
		c-6.4,7.3-13.3,14.1-20.6,20.4c-9,7.9-21.1,10.6-32.6,13c-7.7,1.5-15.5,2.3-23.3,3c-2.2-6.7-4.5-13.4-6.3-20.2
		c-1.6-5.5-4.2-11.2-9.2-14.3c-3.8-2.5-8.7-1.7-12.9-1c-14.1,2.7-28.1,5.8-42.2,8.9c-1.2,0.2-2.6,0.8-3.5-0.3
		c-8.3-7.1-15.2-15.8-21.5-24.8c-3.7-5.7-5.9-12.1-7.2-18.7c-3.8-17.1-7.7-34.2-10.3-51.5c2.4-3.5,3.5-7.6,4.7-11.7l1-0.7
		c3.7,7.1,7.7,14.3,12.6,20.6l-0.4-0.9c3.5,2.6,5,6.9,8.5,9.5c6.7,6.3,16.1,8.1,25,8.4c3.7,0.1,7.4-0.3,10.9-1.5
		c4.4-4.1,7.3-9.6,11.7-13.8c-0.3,5.2-0.5,10.5,0.1,15.6c3.5-11.4,7.9-22.5,13-33.3c2.4,1.7,4.7,3.5,7.1,5.2
		c-2.4-2.3-4.7-4.6-6.9-7.1c2.1,0.6,4.2,1.4,6.3,2c-1.6-1-3.3-2-4.9-3.1c7.5-11.4,17.4-21.1,28.4-29.2
		C415.2,256.5,425.6,248.1,436.4,240.2 M380.5,366.5c-0.8,2.3-3.5,6-0.8,7.9c0.5-2.7,0.5-5.5,1.8-8
		C381.3,366.4,380.8,366.4,380.5,366.5L380.5,366.5z"/>
	<path class="st7" d="M351.6,242.1c0.9-1.5,1.8-2.9,2.8-4.4c2.3,0.6,4.6,1.2,6.8,1.8c1.1,0.3,2.2,0.6,3.4,1c-0.3,1.1-0.7,2.1-1,3.2
		c-0.6-0.1-1.9-0.3-2.5-0.4C357.9,242.9,354.8,242.4,351.6,242.1L351.6,242.1z"/>
	<path class="st5" d="M458.3,272.4c8.4-10.7,16.5-21.7,23.9-33.1c4.5,7.6,6,16.4,9.5,24.4c-0.4,6.8-1.4,13.4-2.2,20.1
		C479.7,278.5,469.1,274.6,458.3,272.4L458.3,272.4z"/>
	<path class="st1" d="M295.2,253.3c3.3-4.4,6.4-9,10.7-12.4c-1.7,5.1-2.9,10.4-3.4,15.8c-3.4,7.2-7.5,14-10.7,21.3
		c-1.2,0.5-2.5,1.1-3.7,1.6c0.6,0,1.7-0.1,2.2-0.2c-0.4,1.3-0.7,2.6-1.1,3.9c-0.9,1.5-1.7,3-2.4,4.5c-0.1,0.4-0.4,1-0.6,1.4
		l-0.2,0.5c-6.2,10.7-10.8,22.3-15.9,33.5c-1.9,5.1-5.5,10.2-4.5,15.9c2,15.3,5.2,30.6,10,45.3c1.8,5.3,0.1,11.2,2.7,16.2
		c0.7,3.5,1,7,1.4,10.5c-3,0.7-5.9,1.3-8.9,2c-9.4-30.8-17.2-62.6-17-95c0.1-12.1,1.6-24.5,6.3-35.7c2-4.6,4.6-9.1,8.5-12.3
		c-4.1,18.8-6.1,38.4-3.9,57.5c2.2-5.4,3-11.2,5-16.6C276,290.9,283.4,270.9,295.2,253.3L295.2,253.3z"/>
	<path class="st3" d="M302.7,273.1c8.2-10.9,15.8-22.3,24.4-32.8c1.8,0,3.6,0.1,5.4,0.1c-0.9,1.8-1.8,3.7-3.1,5.2
		c-7.8,9.2-15.3,18.5-22.8,27.9c-5.1,0.8-10.1,2.1-14.8,4.4c3.2-7.3,7.3-14.1,10.7-21.3c0,4.3-0.1,8.6,0.1,12.9
		C302.6,270.5,302.7,272.2,302.7,273.1L302.7,273.1z"/>
	<path class="st5" d="M332.5,240.4c2.7,0.1,5.5,0.3,8.3,0.5c-3.4,10-5.7,20.6-5.6,31.2c-9.5-0.9-19.1-0.1-28.5,1.4
		c7.5-9.4,15-18.7,22.8-27.9C330.8,244.1,331.7,242.3,332.5,240.4L332.5,240.4z"/>
	<path class="st8" d="M628.1,241c2.3,4.6,3.8,9.5,5.6,14.2c6.4,17.2,13.3,34.3,20.5,51.2c0.3-0.2,0.9-0.7,1.2-1l0.5-0.4v4.4
		c-2.9-2.6-5.6-5.5-7.5-8.9c-8.8-14.7-13.9-31.2-19.9-47.2C628.6,249.2,628.1,245.1,628.1,241L628.1,241z"/>
	<path class="st3" d="M340.5,262.7c3.4-7,6.9-14,11.1-20.7c3.1,0.4,6.3,0.8,9.4,1.3c-1.6,0.6-2.7,1.9-3.5,3.3
		c-5.2,8.9-10.6,17.6-15.8,26.5c-1.7-0.4-3.4-0.7-5.1-0.9C338,269.1,339.3,265.9,340.5,262.7L340.5,262.7z"/>
	<path class="st5" d="M357.5,246.7c0.8-1.5,1.9-2.7,3.5-3.3c0.6,0.1,1.9,0.3,2.5,0.4c-2.6,9.5-5,19.1-6,28.9c-0.4,2.1-0.7,4.3-1,6.4
		c-4.9-2-9.6-4.7-14.8-5.9C346.9,264.3,352.3,255.6,357.5,246.7L357.5,246.7z"/>
	<path class="st9" d="M368.7,263.1c3.5-5.1,7.1-10.2,11.8-14.3c-1.7,4.1-3.8,8.1-5.4,12.3C373,261.8,370.9,262.5,368.7,263.1
		L368.7,263.1z"/>
	<path class="st5" d="M368.7,263.1c2.2-0.6,4.3-1.3,6.5-2c-3.1,7.3-5.2,15-7.7,22.6c-3-1.2-6-2.5-9-3.8
		C361.4,274.1,365,268.5,368.7,263.1L368.7,263.1z"/>
	<path class="st10" d="M171.5,266.7c4.8-1.9,10.1-3.6,15.2-2.1c3.5,1.7,5.3,5.4,7.2,8.6c3.7-0.1,7.4,0.2,11.2,0.5
		c0.2-0.3,0.5-1,0.7-1.3c-0.2,0.9-0.3,1.9-0.5,2.8c-3.1,0-6.3,0-9.4,0.1c0.8,2.3,1.6,4.7,2.3,7c-0.9-1.1-1.9-2.1-2.8-3.2
		c-3.3-4.1-5.8-8.9-9.7-12.6c-3.4-1-7.1-0.5-10.4,0.8c-10.4,4.2-20.7,8.7-31.2,12.8c-1.6,0.7-3.2,1.3-4.7,2.3
		c-1.1,2.6,0.2,5.1,2.5,6.4c-2.7,4.5-5.1,9.3-7.4,14.1c-4,7.6-5,16.4-8.9,24c-4.7,8.6-9.9,17-16.4,24.4c-4.3,4.1-7.8,9.4-7.6,15.6
		c4.4-3.7,8-8.2,12.8-11.5c6.7-4.8,12.7-10.4,18.8-15.8c3.6-3.2,8.1-4.9,12.4-6.9c6.3-3.8,12.7-7.6,19.5-10.3c7-3,14.8-2.8,22.3-3
		c0.8,0,1.7,0,2.5,0.1c-2.1,0.3-4.1,0.7-6.2,1.1c-5.3,1-10.7,1.6-15.7,3.7c-6.9,2.9-13.9,5.8-20.5,9.5c-1.7,0.9-3.2,2.3-3.8,4.2
		c-3.3,9.6-6.6,19.1-10.6,28.4c-3.3,11-5.4,22.3-6.9,33.7c-0.3-11,1.7-21.9,4.1-32.6c3.6-10.6,8.6-20.6,11.5-31.4
		c-9.2,5.1-16,13.4-24.4,19.6c-5.3,3.9-10.6,8.2-14.1,13.9c-2.6,5.1-4,10.8-4.9,16.4c-1.4,9.3,0.4,19.3,5.2,27.5
		c2.8-7.8,5.4-15.6,8.3-23.3c2-5.4,4.5-10.6,6.2-16.1c1.2-1.7,2.4-3.4,3.6-5c-0.7,2.3-1.4,4.5-2.3,6.7c-7,17.2-13.2,34.7-18.2,52.5
		c-3.7,13.3-8.7,26.3-10.6,40c-1.9,9.5-2,19.4-4.3,28.8c-4.3,20.8-8.4,41.8-8.8,63c-0.3,8.5,4,16.1,7.2,23.6c2,4.5,4.7,8.6,7.4,12.6
		c9.4-7.3,17.2-16.8,27.9-22.3c-18.5,16.6-36,34.3-52.7,52.7c-3.2,4-6.8,8-8,13.1c-1.3,6.4-0.5,13.7,3.6,19
		c3.5,4.5,7.2,8.9,11.6,12.6c4.9-6.7,9.4-13.7,15.3-19.5l-0.1,1.2c-6,9.4-13.5,18-17,28.7c-3.7,7.6-5.1,16-6.3,24.3
		c0.2,2.2,1.5,4.1,2.5,6h-3c-0.8-1.6-2.1-3.1-2.1-4.9c1.3-11.3,4.4-22.5,9-32.9c-5.5-4.7-9.5-10.7-13.6-16.5
		c-2.1-2.9-2.8-6.5-3.4-10v-5.5c0.4-4.2,2.6-7.8,4.9-11.2c8.2-11.8,18.6-21.8,28.7-31.8c-5.9-9.9-11.7-20.1-14.7-31.2
		c-0.5-12.5-1-25.2,1.8-37.5c2.3-11.8,4.5-23.6,6.6-35.5c2.2-14.2,3.8-28.6,7.3-42.6c3.9-11.8,7.1-23.8,11.6-35.4
		c-7-11.7-8.6-26.3-4.8-39.3c2.2-6.4,1.4-13.3,3.7-19.7c1.1-4.3,5.1-6.8,7.7-10.1c4.6-5.6,9.5-11.2,12.1-18.1
		c2.3-5.6,5.6-10.8,7-16.8c2-8.4,6.6-15.8,10.7-23.2c-2.1-2.7-2.2-6.2-1.3-9.4C148.3,274.9,160,271,171.5,266.7L171.5,266.7z"/>
	<path class="st11" d="M175.3,267.3c3.3-1.3,7-1.8,10.4-0.8c3.9,3.6,6.4,8.4,9.7,12.6l-0.4,0.6c-10.1-6.2-22.6-3.6-33.2-0.1
		c-6.8,2.6-13.9,4.9-19.8,9.1c-2.3-1.3-3.6-3.8-2.5-6.4c1.4-1,3.1-1.6,4.7-2.3C154.5,276,164.9,271.5,175.3,267.3L175.3,267.3z"/>
	<path class="st10" d="M306.6,273.5c9.4-1.5,19-2.4,28.5-1.4c0.4,0,1.1,0.1,1.5,0.1c1.7,0.2,3.4,0.6,5.1,0.9
		c5.2,1.2,9.9,3.9,14.8,5.9c0.5,0.2,1.4,0.6,1.9,0.8c3,1.3,6,2.6,9,3.8c0.9,0.3,1.7,0.7,2.6,1c1.7,0.6,3.3,1.3,5,2
		c-3-0.5-5.9-1.3-8.8-2c2.9,3.5,6.4,6.4,10.1,9.2c1.6,1.1,3.2,2.1,4.9,3.1c-2.1-0.6-4.2-1.3-6.3-2c2.2,2.5,4.5,4.8,6.9,7.1
		c-2.3-1.7-4.7-3.5-7.1-5.2c-2.8-2.2-5.7-4.2-8.6-6.1c-1.1-0.7-2.1-1.4-3.1-2.1c-0.3,2.3-0.5,4.6-0.9,6.9c-0.6-2.7-0.6-5.4-1.4-8
		c-4.9-3.6-10.6-6.5-16.6-7.7c1.8,2.5,3.6,5.1,4,8.2c-1.5-2.1-2.6-4.8-4.9-6.2c-2.7-1.5-6.5-1.8-8.9,0.4c-6.4,4.9-9.6,14.7-5.3,22
		c0.6,1.1,1.2,2,2,3c1.1,0.8,2.3,1.6,3.4,2.3c-0.4,0.2-1.3,0.6-1.7,0.8c-0.9-0.3-1.7-0.6-2.5-0.9c-2-2.5-3.7-5.1-5.1-8
		c0.1-5.7,0.3-11.8,3.6-16.7c2-3.4,5.7-5.2,9.3-6.3c-6.1-1.3-12.4-1.3-18.7-1c-4.3,8.9-7,19.3-4.6,29.1c1.2,6.4,3.8,13,9.3,16.9
		c3.9,3.1,9,4.3,13.9,3.2c5-0.5,8.4-4.6,12.9-6.5c-3.1,3.5-7.1,6.3-11.6,7.7c3.6,0.4,7.1,0.7,10.7,0.6c-3.5,1.2-7.2,1.5-10.9,1.5
		c-8.9-0.4-18.3-2.1-25-8.4c2.4,1,4.8,1.8,7.3,2.6c-10.3-10.8-11.6-27.3-7.5-41c0.6-1.8,1.2-3.6,1.9-5.4c-4.4,0.8-9,1.2-13,3.2
		c-2.6,1.4-3.7,4.4-4,7.2c1.3,8.2,3.5,16.3,6.9,23.8l0.4,0.9c-5-6.4-8.9-13.5-12.6-20.6l-1,0.7c-1.7,0.8-3.5,1.6-5.2,2.3
		c1.8-1.9,3.7-3.7,5.7-5.5c-0.5-0.2-1.4-0.5-1.8-0.6c0.3-0.5,0.8-1.6,1-2.1c-1.9,0.8-3.7,1.6-5.6,2.4c0.1-0.3,0.4-1,0.6-1.4
		c2.6-1.2,5.2-2.6,6.9-4.9c-1.1,0.2-3.4,0.7-4.6,0.9c1.9-1.7,3.8-3.4,5.7-5.1c-1.5,0.2-3,0.5-4.6,0.6c-0.6,0-1.7,0.1-2.2,0.2
		c1.2-0.5,2.5-1.1,3.7-1.6C296.5,275.6,301.5,274.3,306.6,273.5L306.6,273.5z"/>
	<path class="st12" d="M456.5,274.8c0.4-0.6,1.3-1.8,1.8-2.4c10.9,2.2,21.4,6.1,31.2,11.4c-0.3,1.9-0.5,3.8-0.8,5.7
		C478.3,283.9,467.5,279.1,456.5,274.8L456.5,274.8z"/>
	<path class="st11" d="M195.8,275.3c3.1-0.1,6.3-0.2,9.4-0.1c-0.9,4-1.4,8.1-2.2,12.2c-1.8-1.5-3.4-3.2-4.9-5
		C197.4,280,196.6,277.7,195.8,275.3L195.8,275.3z"/>
	<path class="st13" d="M161.7,279.6c10.6-3.6,23.1-6.1,33.2,0.1l0.4-0.6c0.9,1.1,1.9,2.1,2.8,3.2c1.4,1.9,3.1,3.5,4.9,5
		c-0.9,5.4-1.7,10.9-2.3,16.4C195,297,187,291.9,178,291.8c-15.4-1.3-29.6,5.3-43.4,11c2.3-4.8,4.6-9.5,7.4-14.1
		C147.9,284.6,154.9,282.2,161.7,279.6L161.7,279.6z"/>
	<path class="st14" d="M319.2,277.3c6.2-0.3,12.5-0.3,18.7,1c-3.6,1.2-7.3,2.9-9.3,6.3c-3.4,4.9-3.6,11-3.6,16.7
		c-1.3-2.5-2.6-4.9-4-7.3c-0.2-0.4-0.8-1.1-1-1.5c-0.2-0.2-0.7-0.6-0.9-0.8c-1.1,0.4-2.3,0.8-3.4,1.2c0.6,3.7,1.5,7.3,1.3,11
		c-0.5-1.3-1.1-2.6-1.6-3.9c-0.2,2.1-0.5,4.2-0.7,6.3C312.3,296.6,314.9,286.2,319.2,277.3L319.2,277.3z"/>
	<path class="st15" d="M302.5,280.8c4-2,8.7-2.4,13-3.2c-0.6,1.8-1.3,3.6-1.9,5.4c-5.4,0.5-10.3,2.9-15.2,5.1
		C298.8,285.2,299.9,282.2,302.5,280.8L302.5,280.8z"/>
	<path class="st3" d="M499.8,290.3c1.3-4,2.2-8.2,3.7-12.2c0.6,5.2,0.8,10.5,1,15.8C502.9,292.7,501.3,291.5,499.8,290.3
		L499.8,290.3z"/>
	<path class="st3" d="M290.4,279.4c1.5-0.2,3-0.4,4.6-0.6c-1.9,1.7-3.8,3.4-5.7,5.1c1.1-0.2,3.4-0.7,4.6-0.9
		c-1.8,2.3-4.4,3.7-6.9,4.9c0.7-1.6,1.5-3.1,2.4-4.5C289.7,282.1,290,280.7,290.4,279.4L290.4,279.4z"/>
	<path class="st16" d="M344,279.8c6,1.3,11.6,4.1,16.6,7.7c0.8,2.6,0.8,5.4,1.4,8c-0.1,0.3-0.2,1.1-0.2,1.4
		c-0.2,1.3-0.4,2.5-0.6,3.8c-2.1-1.2-4.4-2.1-6.8-2.5c1-4.1,1.5-8.9-1.1-12.5c-0.8-1.3-2.5-0.8-2.7,0.6c-0.8,4.3-1.5,8.6-2,12.9
		c-2.5,1.5-3.2,5.2-0.5,6.8c-5.6,0.2-9.6,7.3-15.5,4.1c0.4-0.2,1.3-0.6,1.7-0.8c2.4-0.1,4.9-0.5,6.9-2c4.3-4.8,5.1-12,3.5-18.1
		c-1-3.1-4.1-6.5-7.7-5.4c-3.6,0.2-5.2,3.8-6.4,6.7c-1.8,4.2-2.3,9-1.8,13.5c-4.3-7.3-1.2-17,5.3-22c2.4-2.2,6.2-1.9,8.9-0.4
		c2.3,1.4,3.4,4,4.9,6.2C347.7,284.9,345.8,282.3,344,279.8L344,279.8z"/>
	<path class="st17" d="M298.6,288c4.9-2.1,9.8-4.6,15.2-5.1c-4.1,13.7-2.9,30.3,7.5,41c-2.4-0.8-4.9-1.7-7.3-2.6
		c-3.4-2.6-5-6.9-8.5-9.5C302.1,304.3,299.8,296.2,298.6,288L298.6,288z"/>
	<path class="st18" d="M330.6,290.7c1.2-2.9,2.7-6.5,6.4-6.7c3.6-1.1,6.7,2.3,7.7,5.4c1.6,6.1,0.9,13.2-3.5,18.1
		c0.1-1.9,0.2-3.7,0.4-5.6c0.5-1.6-0.4-3.1-1.5-4.2c-2.1-1.4-4.7-1.4-7.1-0.8c-2,1.3-2.7,3.7-2.5,6c0.1,1.4,0.2,2.9,0.3,4.3
		c-0.7-0.9-1.4-1.9-2-3C328.3,299.6,328.8,294.9,330.6,290.7 M334.5,287.6c-0.6,1.7,2.2,2.7,2.7,0.9
		C338,287.1,335.3,286.2,334.5,287.6 M338.4,291.4c0,1.8,2.2,1.3,3.3,1C340.8,291.8,339.4,290,338.4,291.4L338.4,291.4z"/>
	<path class="st1" d="M243.6,284.7c0.4,1.4,0.8,2.9,0.8,4.3c0.1,11.3-0.5,22.7,0.6,34c0.7,15.2,2.3,30.3,3.9,45.4
		c-1.6,11.7,0.9,23.5,1.1,35.2c-1.7-2.7-2.8-5.7-3.7-8.7c1-3-0.2-6-0.8-9c-4.9-22.9-5.3-46.4-4.7-69.7
		C241.4,305.6,241.8,295.1,243.6,284.7L243.6,284.7z"/>
	<path class="st19" d="M350.6,286.4c0.2-1.4,1.9-1.9,2.7-0.6c2.6,3.6,2.1,8.4,1.1,12.5c-1.9,0.2-3.9,0.5-5.7,1
		C349,295,349.8,290.7,350.6,286.4L350.6,286.4z"/>
	<path class="st20" d="M286.3,289.3c1.9-0.8,3.7-1.6,5.6-2.4c-0.3,0.5-0.8,1.6-1,2.1c-1.1-0.4-3.3,0.5-2.8,1.9
		c1.2,0.3,2.1-0.2,2.7-1.3l0.1-0.6c0.5,0.2,1.4,0.5,1.8,0.6c-2,1.8-3.9,3.6-5.7,5.5c1.8-0.7,3.5-1.4,5.2-2.3
		c-1.2,4-2.2,8.2-4.7,11.7c-0.9-4.9-1.5-9.8-1.5-14.8L286.3,289.3L286.3,289.3z"/>
	<path class="st17" d="M334.5,287.6c0.8-1.5,3.5-0.6,2.7,0.9C336.7,290.3,333.9,289.4,334.5,287.6L334.5,287.6z"/>
	<path class="st21" d="M288.1,290.9c-0.5-1.4,1.6-2.3,2.8-1.9l-0.1,0.6C290.2,290.8,289.4,291.2,288.1,290.9L288.1,290.9z"/>
	<path class="st22" d="M362,295.6c0.4-2.3,0.7-4.6,0.9-6.9c1,0.7,2.1,1.4,3.1,2.1c-0.5,2.4-1,4.9-1.5,7.3c-0.7-0.3-2.1-0.8-2.7-1.1
		C361.8,296.7,361.9,296,362,295.6L362,295.6z"/>
	<path class="st0" d="M270.2,323.2c5.2-11.2,9.7-22.8,15.9-33.5c0,5,0.6,9.9,1.5,14.8c2.5,17.3,6.4,34.4,10.3,51.5
		c1.3,6.6,3.5,13,7.2,18.7c4.6,10.3,12.7,18.5,21.2,25.7c-8.6,2.3-17.4,4-26.1,6c-0.8-0.1-2.2-0.2-3-0.3
		c-5.3-14.9-6.3-30.8-7.6-46.4c-0.2-1.8-1-3.5-2-5c-5.7-8.6-8.9-18.5-13.3-27.8c-1.1,7.8,1,15.6,2.5,23.2c1.2,6.9,3.7,13.4,5.1,20.2
		c-4-3.6-6-8.7-8.6-13.3c-0.8,5.4,0.8,10.8,1.5,16.2c0.9,6.2,3.1,12.2,3.9,18.4c-0.1,3-0.3,6-0.2,9.1c-2.7-5-0.9-10.9-2.7-16.2
		c-4.8-14.7-8-30-10-45.3C264.7,333.4,268.3,328.4,270.2,323.2L270.2,323.2z"/>
	<path class="st5" d="M338.4,291.4c1-1.5,2.4,0.4,3.3,1C340.6,292.7,338.4,293.2,338.4,291.4L338.4,291.4z"/>
	<path class="st1" d="M366,290.8c3,1.9,5.8,3.9,8.6,6.1c-5,10.8-9.4,21.9-13,33.3c-0.6-5.2-0.5-10.4-0.1-15.6
		c0.7-5.5,1.9-11,2.9-16.4C365,295.6,365.5,293.2,366,290.8L366,290.8z"/>
	<path class="st23" d="M498.2,295.2c0.5-1.6,1.1-3.2,1.6-4.8c1.6,1.2,3.1,2.3,4.7,3.5c0.1,1.9,0.2,3.8,0.3,5.6
		C502.6,298.1,500.4,296.6,498.2,295.2L498.2,295.2z"/>
	<path class="st11" d="M134.5,302.8c13.8-5.7,28.1-12.4,43.4-11c9,0.1,17,5.2,22.7,11.9c-0.4,3.9-0.9,7.8-1.3,11.7
		c-3.6-5.2-6.4-11.2-11.8-14.9c-3.1-2.3-6.9-3.2-10.6-3.5c3.9,7.2,8.3,14.3,10.5,22.4c-7.5,0.2-15.3,0-22.3,3
		c-6.9,2.8-13.2,6.6-19.5,10.3c-4.3,2-8.8,3.7-12.4,6.9c-2.3-1-5.5-1.3-6.7-3.8c-1-2.8-0.9-5.9-0.9-8.9
		C129.5,319.2,130.5,310.4,134.5,302.8L134.5,302.8z"/>
	<path class="st24" d="M315.6,293c1.1-0.4,2.3-0.8,3.4-1.2c0.2,0.2,0.7,0.6,0.9,0.8c-2.3,0.7-2.8,2.7-2.5,4.8
		c0.8-0.1,2.5-0.3,3.3-0.4c0.1-0.7,0.2-2.2,0.2-3c1.4,2.4,2.7,4.9,4,7.3c1.4,2.8,3.1,5.5,5.1,8c-2.9-0.9-5.4-2.6-7.6-4.6
		c-0.9,1.4-1.6,2.8-2.2,4.4c-0.3-0.2-0.9-0.7-1.2-0.9c0.7,2.6,1.7,5.1,2.9,7.6c0.8,2.5,1.5,5,2.1,7.5c-5.5-3.8-8.1-10.5-9.3-16.9
		c0.2-2.1,0.4-4.2,0.7-6.3c0.5,1.3,1,2.6,1.6,3.9C317.1,300.3,316.2,296.6,315.6,293 M318,302.3c0.2,1.9,0.7,4.2,3.3,3.2
		C322.5,303.2,320,302,318,302.3L318,302.3z"/>
	<path class="st25" d="M317.5,297.4c-0.3-2.2,0.2-4.1,2.5-4.8c0.3,0.4,0.8,1.1,1,1.5c0,0.7-0.1,2.2-0.2,3
		C319.9,297.1,318.3,297.3,317.5,297.4L317.5,297.4z"/>
	<path class="st3" d="M498.2,295.2c2.2,1.4,4.4,2.9,6.6,4.3c0.8,8.3,0.9,16.7,0.9,25c-3.3-8.6-4.5-17.9-8.6-26.2
		C497.5,297.3,497.8,296.2,498.2,295.2L498.2,295.2z"/>
	<path class="st13" d="M177,297c3.8,0.3,7.6,1.2,10.6,3.5c5.4,3.7,8.2,9.8,11.8,14.9c-0.6,9.7-1.1,19.5-1.1,29.2
		c-5.8-6.6-8.1-15.4-10.6-23.7c-1.3-0.2-2.6-0.4-3.9-0.5c2.1-0.4,4.1-0.7,6.2-1.1c-0.9,0-1.7-0.1-2.5-0.1
		C185.3,311.3,180.9,304.2,177,297L177,297z"/>
	<path class="st26" d="M330.5,302.9c-0.3-2.3,0.5-4.7,2.5-6c2.4-0.6,5-0.6,7.1,0.8c-0.7,1.2-2.5,2.3-1.5,3.8
		c0.6,0.3,1.8,0.9,2.4,1.2c-0.5,0.5-1,1-1.5,1.6c-2.3-1.2-4.9-1.7-7.2-0.4C331.8,303.6,330.9,303.1,330.5,302.9L330.5,302.9z"/>
	<path class="st17" d="M361.7,297c0.7,0.3,2.1,0.8,2.7,1.1c-1,5.5-2.2,10.9-2.9,16.4c-4.4,4.2-7.2,9.7-11.7,13.8
		c-3.6,0.1-7.2-0.2-10.7-0.6c4.5-1.5,8.5-4.2,11.6-7.7c2.9-2.9,5-6.6,7-10.2c-2.3-0.6-4.6-1.3-6.8-2.2c-1-0.5-1.9-1-2.9-1.5
		c-2.7-1.7-2-5.3,0.5-6.8c1.9-0.5,3.8-0.8,5.7-1c2.4,0.4,4.7,1.3,6.8,2.5C361.3,299.6,361.5,298.3,361.7,297L361.7,297z"/>
	<path class="st27" d="M338.5,301.5c-1-1.5,0.8-2.6,1.5-3.8c1.1,1.1,2,2.6,1.5,4.2l-0.6,0.8C340.3,302.4,339.1,301.8,338.5,301.5
		L338.5,301.5z"/>
	<path class="st5" d="M486.1,323.6c4.5-8,7.8-16.6,11-25.2c4.1,8.3,5.4,17.6,8.6,26.2c0.3,6.3-0.1,12.7,0.2,19
		c2.5-2.9,2.8-6.9,3.7-10.4c0.1,0.9,0.2,2.6,0.3,3.4c-0.8,3-1.7,5.9-2.7,8.9c-6.5-7.4-14.5-13.4-22.7-18.8
		C485.1,325.5,485.6,324.6,486.1,323.6L486.1,323.6z"/>
	<path class="st28" d="M318,302.3c1.9-0.3,4.4,0.8,3.3,3.2C318.7,306.5,318.3,304.2,318,302.3L318,302.3z"/>
	<path class="st29" d="M340.9,302.7l0.6-0.8c-0.1,1.9-0.3,3.7-0.4,5.6c-2,1.5-4.5,2-6.9,2c-1.2-0.7-2.3-1.5-3.4-2.3
		c-0.1-1.4-0.2-2.9-0.3-4.3c0.4,0.3,1.3,0.8,1.8,1c2.1,1.4,5.1,2.3,7.2,0.4C340,303.8,340.5,303.2,340.9,302.7L340.9,302.7z"/>
	<path class="st30" d="M332.2,303.9c2.4-1.4,4.9-0.8,7.2,0.4C337.3,306.2,334.4,305.3,332.2,303.9L332.2,303.9z"/>
	<path class="st31" d="M320.2,309.1c0.6-1.5,1.3-3,2.2-4.4c2.2,2,4.7,3.6,7.6,4.6c0.8,0.3,1.7,0.6,2.5,0.9c5.9,3.2,9.9-4,15.5-4.1
		c1,0.5,1.9,1,2.9,1.5c0,0.8,0,2.5-0.1,3.4c-1-1.2-2.1-2.7-3.8-1.7c-3.2,1.7-5,5.2-7.2,8C332.1,319.5,325.9,313.3,320.2,309.1
		L320.2,309.1z"/>
	<path class="st32" d="M319,308.2c0.3,0.2,0.9,0.7,1.2,0.9c5.7,4.2,11.8,10.4,19.7,8.1c3.8-1.1,7.3-2.7,11-4.2
		c-0.5,1.8-1.6,3.5-2.7,5c-4.8,1.7-8.9,5.7-14.2,5.5c-5.3,0-8.6-4.6-12.1-7.8C320.7,313.3,319.7,310.8,319,308.2L319,308.2z"/>
	<path class="st33" d="M351,307.6c2.2,0.9,4.5,1.6,6.8,2.2c-2,3.6-4,7.2-7,10.2c-4.5,1.9-7.9,6-12.9,6.5c3.1-3.3,8.2-4.1,10.3-8.4
		c1.1-1.6,2.1-3.2,2.7-5c0-0.5,0-1.5,0-2C350.9,310.2,351,308.5,351,307.6L351,307.6z"/>
	<path class="st34" d="M339.9,317.2c2.2-2.8,3.9-6.3,7.2-8c1.7-1,2.8,0.6,3.8,1.7c0,0.5,0,1.5,0,2
		C347.2,314.5,343.7,316.1,339.9,317.2L339.9,317.2z"/>
	<path class="st10" d="M438.8,314.4c8.1,1.1,16.1,2.5,24.2,3.4c7.1,0.8,13.7,4,19.8,7.6c0.5,0.3,1.4,0.9,1.8,1.1
		c8.2,5.4,16.2,11.4,22.7,18.8c1.6,2.3,3.1,4.6,4.6,6.8c-1.6-1.1-3.2-2.1-4.8-3.2c0.6,2.1,1.3,4.3,2,6.4c-1.2-0.8-2.3-1.7-3.5-2.5
		c0.9,2.9,2.2,5.7,3.6,8.5c-1.3-1.1-2.5-2.2-3.8-3.2c0.2,0.8,0.5,2.3,0.7,3.1c-0.6-0.5-2-1.6-2.6-2.1c0.3,2,0.7,3.9,1,5.9
		c-1.2-1.4-2.4-2.7-3.5-4.1c-0.3,0.2-0.9,0.6-1.2,0.8c-6.4,3.8-13,7.1-19.8,10.2c6.7-4.9,13-10.5,18.4-16.7c1.2-2.2,2.3-4.7,1.6-7.2
		c-1.1-3.7-4.4-6.1-7.1-8.6c-0.2,0.7-0.6,2.1-0.8,2.8c-0.2-1.9-0.1-4.3-2-5.5c-5-3.9-10.1-7.9-16.2-10c-6.4-2.4-13-5-20-4.9
		c-2.7,0.1-4,2.8-5.3,4.7c-5.8,8.6-9.7,19.1-8.1,29.7c0.6,3.6,1.8,7.3,4,10.2c2.7,3.7,7,6.1,11.4,7.3c4.5-0.4,9.8-0.5,12.9-4.3
		c-0.2,0.4-0.5,1.2-0.7,1.5c1.7-0.3,3.4-0.5,5.1-0.8c-4.3,3-9.2,4.9-14.4,5.6c2.7,1,5.4,2,8.1,2.8c-5.8,0.3-11.6-1.2-16.5-4.2
		c-6.1-3.2-11.7-7.6-15.5-13.4l0.7,0.5c2,1.5,3.9,3.1,5.8,4.7c-6.1-12-3.5-26.6,2.7-38c1.3-2.3,2.8-4.5,4.2-6.6
		c-3.2,0-6.4,0-9.6,0.1c-4.4,0.2-8.8,0.8-13.2,0.8c1-0.4,3-1.2,4-1.6l-0.1-0.8c-2-0.3-3.9-0.6-5.8-1.1c6.4,0.4,12.6-1,18.8-2.1
		C441.7,316.3,439.8,315,438.8,314.4L438.8,314.4z"/>
	<path class="st35" d="M321.9,315.8c3.6,3.1,6.9,7.8,12.1,7.8c5.4,0.2,9.4-3.8,14.2-5.5c-2.1,4.3-7.2,5.1-10.3,8.4
		c-4.9,1-10-0.1-13.9-3.2C323.3,320.7,322.7,318.2,321.9,315.8L321.9,315.8z"/>
	<path class="st11" d="M168.1,324.2c5-2.2,10.4-2.7,15.7-3.7c1.3,0.1,2.6,0.3,3.9,0.5c2.5,8.2,4.9,17.1,10.6,23.7
		c0.1,6.2,0.4,12.5,1,18.7c-10.6-2.9-17.3-12.4-25.7-18.7c1.6,3.8,4.4,6.8,6.9,10c5.8,6.8,11.6,13.9,19.8,17.9
		c2.3,16.1,6.3,32.2,13.1,47c0.9,2.1,1.9,4.2,3.2,6.1c-13.3,3-26.5,6.1-39.8,9.2c-5,1-8.9,5.2-9.9,10.1c-1.6,6.7,0.5,13.5,2.1,20.1
		c5.1,19.8,11,39.4,17.3,58.9c0.4,2.5-0.1,4.9-1.1,7.2c-7.6-5-13.9-11.6-20.8-17.3c-8.4-8.2-14.6-18.3-21.1-27.9
		c-4.7-6.8-8.2-14.3-13-21c3.4,11.9,9.8,22.7,15.2,33.8c8.5,16.5,17.9,32.6,26.9,48.8c-3.5-1.3-7.6-3.6-11.3-1.5
		c-3.2,2.1-2,6.7-1.8,9.9c-5.9,4.1-12.5,7-18.4,10.9c8.7,1.6,17.6,2.7,26.5,2.1c4.1,4.7,8.7,9.1,14.4,11.8
		c-17.6,1.2-35.4,5.6-49.8,16.1c-6.7,5.1-14.3,9.2-22.5,11.5c-6.1,2.2-12.4,4.5-17.5,8.7c3.8-0.6,7.5-1.5,11.3-1.8
		c-2.5,1.9-5.3,3.4-8.1,4.9c-12.1,6.8-23.9,14.1-35.1,22.3c-0.1-0.6-0.3-1.9-0.4-2.6c1.3-5.1,4.8-9.2,8-13.1
		c16.7-18.4,34.2-36.1,52.7-52.7c2.1-1,4.5-0.4,6.7-0.2c3.7,0.6,7.5,0.6,11.3,0.1c-4.2-2.1-8.6-3.7-12.4-6.6
		c5.1-7.8,9.9-15.8,14.4-23.9c2.2-4.3,4.5-8.8,5.1-13.6c-5.6,4.3-9.8,10-15.4,14.3c-3.9,3.4-8.4,5.9-12.9,8.2
		c-7.5,4.5-14.8,9.6-20.9,16c-4.7,4.4-7.9,10-11.2,15.5c-3.2-7.6-7.5-15.2-7.2-23.6c0.3-21.3,4.5-42.3,8.8-63
		c2.2-9.5,2.4-19.3,4.3-28.8c2-13.7,6.9-26.7,10.6-40c5-17.9,11.2-35.4,18.2-52.5c0.9-2.2,1.7-4.4,2.3-6.7c-1.3,1.6-2.5,3.3-3.6,5
		c-6.9,7.1-12.2,15.5-19.2,22.4c-0.3-3.5-0.6-6.9-0.4-10.4c0.9-5.6,2.2-11.3,4.9-16.4c3.5-5.7,8.8-10,14.1-13.9
		c8.4-6.2,15.2-14.5,24.4-19.6c-2.9,10.8-7.9,20.8-11.5,31.4c-2.4,10.7-4.4,21.6-4.1,32.6c1.5-11.4,3.7-22.7,6.9-33.7
		c4-9.3,7.2-18.9,10.6-28.4c0.5-2,2-3.4,3.8-4.2C154.2,330,161.2,327.2,168.1,324.2 M126.3,425.2c0.6,9.5,3.9,18.7,7.2,27.5
		c5.5,12.6,12.4,25.1,22.5,34.6c-1.8-10.9-6.2-21.9-3.1-33C139.3,450.5,131.7,437.3,126.3,425.2L126.3,425.2z"/>
	<path class="st1" d="M231.1,338c0.9-5.4,1.8-10.8,3.6-16c-1.4,18.7-4,37.6-1.9,56.4c-0.7,3.5-1.1,7-1.1,10.6
		c0,10.9-0.8,21.9,2.3,32.5c-1,0.2-2.1,0.5-3.1,0.8c-4-12.3-4.4-25.4-4.2-38.2C226.3,368.7,228.4,353.3,231.1,338L231.1,338z"/>
	<path class="st36" d="M439,321.6c3.2-0.1,6.4-0.1,9.6-0.1c-1.5,2.2-2.9,4.3-4.2,6.6l-0.2-1.4c-1.7,0.1-3.5,0.2-5.2,0.3
		c-0.5,0-1.5,0-2.1,0.1C437.7,325.3,438.3,323.4,439,321.6L439,321.6z"/>
	<path class="st37" d="M448.7,326.6c1.3-1.9,2.6-4.6,5.3-4.7c7-0.1,13.6,2.5,20,4.9c6.1,2.1,11.2,6.2,16.2,10c1.9,1.2,1.8,3.5,2,5.5
		c-0.3,1.1-0.7,2.3-1.1,3.4c-1.2,3.3-2.7,6.5-4.3,9.6c-1.8-1.5-3.7-3-5.8-4c2.2-4.4,4.3-10.2,1-14.6c-1.5,2.1-3,4.3-4.2,6.6
		c0-4.7,0.7-10.3-3.6-13.5c-5.8-5.3-14.5-0.2-18.2,5.3C453.1,332.8,450,330.3,448.7,326.6L448.7,326.6z"/>
	<path class="st0" d="M561.5,324.1c1.1,15.6,0.6,31.4-1.5,47c-0.6,5.4-2.5,10.6-2.8,16c6.8-14.3,13.3-28.6,19.7-43.1
		c2-4.4,3.5-9.1,6-13.4c0.6,7.9,1.2,16.2-1.6,23.7c-3.7,12.4-7.4,25-13.8,36.3c-2,3.1-1.2,6.8-1.1,10.3c0.4,5.7,0.1,11.5-0.9,17.2
		c-0.5-0.7-1-1.4-1.5-2.2c-0.7-5.2-1.5-10.4-3.2-15.4c-4.9,4.7-8.9,10.2-13.1,15.5c-0.3,0.3-0.8,1-1,1.3c-1.6,2.1-3,4.3-4.6,6.5
		c-1.7,1.2-3.3,2.5-4.6,4.1c-6.7,8.7-13.5,17.3-19.2,26.7c-2.3,3.7-3.6,7.9-4.7,12c-1.2,2.3-2.4,4.6-3.5,7
		c-0.8-4.1,1.6-7.8,2.7-11.6c4.9-13.9,9.1-28.3,17.5-40.5c8.1-13,16.4-26.3,19.8-41.4c1.2-5.3,2.3-10.8,1.5-16.3
		c-11.3,22.4-21.3,45.5-33.6,67.3c-1.3,2.6-2.2,5.4-3.1,8.2c-1.8,2.3-3.6,4.7-5.1,7.2c-7.6,8.2-14,17.6-20.9,26.3
		c-3.6,4.9-7.5,9.5-11.3,14.3l-1-0.4c6-14.9,14.1-29.2,18-44.9c-8.1,10-14.1,21.7-22.8,31.3c1.8-4.7,5-8.5,7.5-12.9
		c7-11.4,13.7-23,20.5-34.5c0.3,5.1-0.8,10.1-0.9,15.2c10.7-21.2,20.5-42.8,29.5-64.8c1.9-4.1,2.4-8.8,4.8-12.7
		c0.9,3.8,1.7,7.7,2.8,11.5c3.4-4.5,5.5-9.9,8.3-14.8C551,348.8,556.5,336.6,561.5,324.1L561.5,324.1z"/>
	<path class="st13" d="M109.2,351.3c6.5-7.4,11.7-15.8,16.4-24.4c0,3-0.1,6,0.9,8.9c1.2,2.5,4.3,2.8,6.7,3.8
		c-6.1,5.4-12.1,11.1-18.8,15.8c-4.7,3.3-8.3,7.8-12.8,11.5C101.4,360.7,104.9,355.4,109.2,351.3L109.2,351.3z"/>
	<path class="st1" d="M276.7,350.1c-1.4-7.6-3.5-15.4-2.5-23.2c4.3,9.3,7.6,19.2,13.3,27.8c0.9,1.5,1.7,3.2,2,5
		c1.3,15.6,2.3,31.6,7.6,46.4c0.8,0.1,2.2,0.2,3,0.3c-4.2,1-8.4,1.9-12.7,2.8c-3.7-5.6-5.9-11.8-8.8-17.8
		c-0.9-6.2-3.1-12.2-3.9-18.4c-0.7-5.4-2.3-10.8-1.5-16.2c2.6,4.6,4.6,9.7,8.6,13.3C280.4,363.5,277.9,357,276.7,350.1L276.7,350.1z
		"/>
	<path class="st17" d="M439,327c1.7-0.1,3.4-0.2,5.2-0.3l0.2,1.4c-6.3,11.4-8.8,26-2.7,38c-1.9-1.6-3.9-3.2-5.8-4.7
		c-4.4-7.5-2.7-16.6-1.3-24.7C435.4,333.3,435.4,328.8,439,327L439,327z"/>
	<path class="st38" d="M440.6,356.3c-1.6-10.5,2.3-21,8.1-29.7c1.3,3.7,4.4,6.2,7.5,8.5c-2.3,3.4-3.3,7.4-4.3,11.4
		c-1.2-3.7-1.7-7.5-2.6-11.2c-1.6,0.5-3.1,1-4.7,1.6c0.9,3,0.8,6.1-0.3,9.1c-0.1,0.5-0.4,1.4-0.6,1.8
		C440.4,349.1,440.7,353.2,440.6,356.3L440.6,356.3z"/>
	<path class="st10" d="M456.2,335.1c3.7-5.5,12.3-10.6,18.2-5.3c4.3,3.2,3.5,8.8,3.6,13.5c-0.8,1.7-1.7,3.4-2.7,5
		c0.4-4,1.8-8.1,0.7-12.1c-1.6-3.8-5.9-6.7-10-5.3c-8.9,2.7-13.5,13.9-10.3,22.4c0.1,0.3,0.4,0.9,0.5,1.2c1.6,1.1,3.4,2.2,5.1,3.2
		c-0.4,0.2-1.3,0.6-1.7,0.8c-4-1.2-6.5-4.9-7.4-8.8c-0.1-0.8-0.2-2.3-0.3-3.1C452.8,342.5,453.9,338.5,456.2,335.1L456.2,335.1z"/>
	<path class="st39" d="M466,330.9c4.1-1.4,8.4,1.5,10,5.3c1.1,4-0.3,8.1-0.7,12.1c1-1.6,1.9-3.3,2.7-5c1.2-2.3,2.7-4.5,4.2-6.6
		c3.2,4.4,1.2,10.2-1,14.6c-2.7-0.5-6-1.3-8.3,0.7c-1.3,1.1-1.2,2.8-0.6,4.3c-4.2,0.6-8.4,3.5-12.7,2.1c0.4-0.2,1.3-0.6,1.7-0.8
		c1.6-0.5,3.2-0.9,4.8-1.4c4.1-2.6,6-7.4,7.3-11.9c0.7-3.5,1-8-2.2-10.4c-2.2-0.8-4.7-1.4-7-0.7c-5.6,5-9.5,12.2-8.6,20
		C452.5,344.8,457.1,333.6,466,330.9L466,330.9z"/>
	<path class="st40" d="M464.2,333.3c2.2-0.8,4.8-0.2,7,0.7c3.1,2.5,2.9,6.9,2.2,10.4c-1.3,4.5-3.2,9.3-7.3,11.9c-0.2-1-0.4-2-0.6-3
		c0.6-0.4,1.2-0.9,1.8-1.4c0.5-0.9,1-1.8,1.6-2.7c-0.5-0.9-1.1-1.7-1.6-2.5c-1.5-2.9-5.4-2.5-8.1-1.7c-2.1,0.8-1.8,3.3-1.8,5.2
		c-0.4,1.4-0.8,2.9-1.1,4.3c-0.1-0.3-0.4-0.9-0.5-1.2C454.7,345.5,458.7,338.3,464.2,333.3 M464.6,335.6c-1.2,1.4,1,3.3,2.3,2.1
		C468.6,336.3,465.9,334.1,464.6,335.6 M467.7,339.9c-1.3,0.8,0.6,2.4,1.6,2.3l0.6-0.1C472.2,341.1,469.1,338,467.7,339.9
		L467.7,339.9z"/>
	<path class="st17" d="M464.6,335.6c1.3-1.5,4,0.7,2.3,2.1C465.6,338.9,463.4,337,464.6,335.6L464.6,335.6z"/>
	<path class="st41" d="M444.7,336.8c1.5-0.5,3.1-1,4.7-1.6c0.9,3.7,1.4,7.5,2.6,11.2c0.1,0.8,0.2,2.3,0.3,3.1
		c-2.1-0.7-4-1.9-5.4-3.6c-0.6,0-1.8-0.1-2.4-0.1C445.4,342.9,445.5,339.8,444.7,336.8 M447.2,337.6c-0.2,0.4-0.5,1.3-0.7,1.7
		C448.3,342.9,450.9,335.9,447.2,337.6L447.2,337.6z"/>
	<path class="st42" d="M447.2,337.6c3.7-1.7,1.1,5.3-0.7,1.7C446.7,338.9,447,338,447.2,337.6L447.2,337.6z"/>
	<path class="st43" d="M467.7,339.9c1.4-1.9,4.5,1.2,2.2,2.3l-0.1-0.6l-0.6,0l0.1,0.6C468.2,342.3,466.3,340.6,467.7,339.9
		L467.7,339.9z"/>
	<path class="st15" d="M493.1,339.5c2.7,2.5,6,4.9,7.1,8.6c0.7,2.5-0.4,5-1.6,7.2c-2.2-3.4-4.5-6.7-7.4-9.6c0.4-1.1,0.7-2.3,1.1-3.4
		C492.5,341.6,492.9,340.2,493.1,339.5L493.1,339.5z"/>
	<polygon class="st44" points="469.2,341.6 469.8,341.5 469.8,342.1 469.3,342.2 469.2,341.6 	"/>
	<path class="st13" d="M173.6,344.7c8.5,6.3,15.2,15.8,25.7,18.7c0.3,3.1,0.6,6.1,0.9,9.2c-8.2-4-14-11.1-19.8-17.9
		C178,351.5,175.3,348.5,173.6,344.7L173.6,344.7z"/>
	<path class="st45" d="M457.2,350.1c0-1.8-0.3-4.3,1.8-5.2c2.7-0.8,6.5-1.2,8.1,1.7c-0.8,1.2-3.2,2.2-1.7,3.9c0.4,0.3,1.3,1,1.8,1.4
		c-0.6,0.5-1.1,0.9-1.8,1.4h-0.8c-1.5-2.3-4-3.6-6.7-2.5L457.2,350.1L457.2,350.1z"/>
	<path class="st31" d="M444.4,345.9c0.6,0,1.8,0.1,2.4,0.1c1.5,1.7,3.3,2.9,5.4,3.6c0.9,3.9,3.4,7.6,7.4,8.8
		c4.3,1.4,8.4-1.5,12.7-2.1c0.9,1,1.8,1.9,2.8,2.8c-0.1,0.5-0.3,1.4-0.4,1.9c-1.7-0.4-3.5-1.7-5.2-0.6c-3.5,1.9-6.3,5.3-10.6,5.1
		c-3.1-1.3-6.2-3.2-8.3-5.9c-1.8-2.2-3.2-4.9-5.8-6.2c0,1.6,0,3.2,0,4.8c-1.2-3.3-1.9-7-1-10.5C444,347.3,444.2,346.3,444.4,345.9
		 M445.4,347.1c-0.4,1.4,0.1,1.9,1.5,1.5C447.3,347.3,446.8,346.8,445.4,347.1L445.4,347.1z"/>
	<path class="st17" d="M491.2,345.7c2.9,2.9,5.2,6.2,7.4,9.6c-5.5,6.2-11.8,11.8-18.4,16.7c-4.2,2.4-8,6.1-12.9,6.6
		c-2.7-0.8-5.4-1.9-8.1-2.8c5.2-0.7,10.1-2.6,14.4-5.6c2.9-2,5.3-4.4,7.7-7c-2.1-1.2-4.3-2.5-6.1-4.1c-1-0.9-1.9-1.8-2.8-2.8
		c-0.5-1.5-0.6-3.1,0.6-4.3c2.3-2.1,5.6-1.2,8.3-0.7c2.1,1,4,2.5,5.8,4C488.5,352.1,490,349,491.2,345.7L491.2,345.7z"/>
	<path class="st46" d="M445.4,347.1c1.4-0.4,1.9,0.1,1.5,1.5C445.5,349,445,348.5,445.4,347.1L445.4,347.1z"/>
	<path class="st27" d="M465.4,350.5c-1.5-1.6,0.9-2.7,1.7-3.9c0.5,0.8,1.1,1.7,1.6,2.5c-0.5,0.9-1,1.8-1.6,2.7
		C466.7,351.5,465.8,350.9,465.4,350.5L465.4,350.5z"/>
	<path class="st47" d="M440.6,356.3c0.1-3.1-0.2-7.1,3.2-8.6c-0.9,3.5-0.3,7.1,1,10.5c0.1,0.4,0.4,1.2,0.5,1.6
		c-0.1,2.3-0.3,4.5-0.6,6.7C442.4,363.5,441.2,359.9,440.6,356.3L440.6,356.3z"/>
	<path class="st48" d="M457.9,350.8c2.7-1.1,5.2,0.2,6.7,2.5C462.1,353.4,459.6,352.7,457.9,350.8L457.9,350.8z"/>
	<path class="st29" d="M456.1,354.4c0.4-1.4,0.7-2.9,1.1-4.3l0.7,0.7c1.7,2,4.2,2.6,6.7,2.5h0.8c0.2,1,0.4,2,0.6,3
		c-1.6,0.5-3.2,0.9-4.8,1.4C459.5,356.6,457.8,355.6,456.1,354.4L456.1,354.4z"/>
	<path class="st32" d="M444.8,353.4c2.6,1.4,4,4,5.8,6.2c2.1,2.7,5.1,4.6,8.3,5.9c4.7,0.7,9.3-0.5,14-1c0.1,0.3,0.3,1,0.5,1.3
		c-1,0.8-2.1,1.5-3.1,2.2c-5.2,1.3-10.6,3.6-16,1.8c-4.7-1.4-6.6-6.3-8.9-10.1c-0.1-0.4-0.3-1.2-0.5-1.6
		C444.7,356.6,444.7,355,444.8,353.4L444.8,353.4z"/>
	<path class="st0" d="M632.4,357.9c3.3,6.8,3.4,14.5,5.6,21.6c-1.3,24.2-3.6,48.5-7.5,72.4c0.5-10.5-0.6-20.9-2.4-31.2
		c0.5-1.5,1-3.1,1.1-4.7C630.5,396.7,632.1,377.3,632.4,357.9L632.4,357.9z"/>
	<path class="st49" d="M475,359.1c1.9,1.6,4,2.9,6.1,4.1c-2.4,2.5-4.8,5-7.7,7c-1.7,0.3-3.4,0.6-5.1,0.8c0.2-0.4,0.5-1.2,0.7-1.5
		c0.3-0.3,0.8-1,1.1-1.3c1.1-0.7,2.1-1.5,3.1-2.2c0.6-1.6,1-3.3,1.4-4.9C474.7,360.5,474.9,359.6,475,359.1L475,359.1z"/>
	<path class="st50" d="M445.3,359.8c2.2,3.8,4.2,8.7,8.9,10.1c5.4,1.8,10.8-0.5,16-1.8c-0.3,0.3-0.8,1-1.1,1.3
		c-3.1,3.9-8.4,3.9-12.9,4.3c-4.4-1.1-8.7-3.5-11.4-7.3C444.9,364.3,445.2,362,445.3,359.8L445.3,359.8z"/>
	<path class="st34" d="M469.4,360.4c1.7-1.1,3.5,0.2,5.2,0.6c-0.4,1.6-0.8,3.3-1.4,4.9c-0.1-0.3-0.3-1-0.5-1.3
		c-4.6,0.5-9.3,1.6-14,1C463.1,365.7,465.9,362.2,469.4,360.4L469.4,360.4z"/>
	<path class="st1" d="M237.5,382.8c-1-6.6-1.1-13.5,1.2-19.8c1.1,5.3,1.7,10.6,3,15.9c-0.3-0.1-1-0.3-1.3-0.4c0,5,0,10-0.2,15
		c-0.6-0.6-1.1-1.2-1.6-1.9C239.2,388.6,237.9,385.7,237.5,382.8L237.5,382.8z"/>
	<path class="st1" d="M518.3,431.4c12.3-21.9,22.4-44.9,33.6-67.3c0.7,5.5-0.3,11-1.5,16.3c-3.3,15.1-11.7,28.4-19.8,41.4
		c-8.4,12.2-12.7,26.6-17.5,40.5c-1.1,3.8-3.4,7.5-2.7,11.6c-1.5,4.9-3.9,9.4-5.4,14.3c-1.1,3.4-2.1,6.8-3.7,10
		c3.5-19.7,9.8-38.9,13.9-58.5C516.1,436.8,517,434,518.3,431.4L518.3,431.4z"/>
	<path class="st51" d="M609.5,369.4c0.4-2.1,1-4.1,2.3-5.8c0.3,10.3-2.3,20.5-4.5,30.5c-4.3,17.1-9.5,34.1-15.8,50.6
		c-0.6-5.3,1.8-10.1,2.9-15.2c2.7-9,4.8-18.2,7.8-27.1C605.4,391.6,607.4,380.5,609.5,369.4L609.5,369.4z"/>
	<path class="st6" d="M380.5,366.5c0.2,0,0.8,0,1-0.1c-1.3,2.4-1.3,5.3-1.8,8C377,372.5,379.7,368.8,380.5,366.5L380.5,366.5z"/>
	<path class="st13" d="M250,403.6c-0.2-11.7-2.7-23.4-1.1-35.2c4.3,14,8.2,28.1,13,42c0.8,1.9,1.3,5.2,4.1,4
		c-10.7,2.4-21.4,4.8-32.1,7.3c-3-10.6-2.3-21.7-2.3-32.5c0-3.6,0.4-7.1,1.1-10.6c1.4,4.6,3,9.3,5.9,13.2c0.5,0.6,1,1.2,1.6,1.9
		c0.2-5,0.2-10,0.2-15c0.3,0.1,1,0.3,1.3,0.4c1.2,5.4,2.8,10.7,4.6,16C247.1,397.9,248.2,400.9,250,403.6L250,403.6z"/>
	<path class="st13" d="M99,396.4c7-6.9,12.4-15.3,19.2-22.4c-1.7,5.5-4.2,10.7-6.2,16.1c-2.9,7.7-5.5,15.5-8.3,23.3
		c-4.8-8.2-6.5-18.2-5.2-27.5C98.5,389.4,98.7,392.9,99,396.4L99,396.4z"/>
	<path class="st52" d="M305,374.8c6.2,9,13.1,17.6,21.5,24.8c0.9,1.1,2.4,0.5,3.5,0.3c14-3.1,28.1-6.2,42.2-8.9
		c4.3-0.7,9.1-1.5,12.9,1c5,3.1,7.6,8.8,9.2,14.3c1.8,6.8,4,13.5,6.3,20.2c7.8-0.8,15.6-1.6,23.3-3c11.4-2.3,23.6-5,32.6-13
		c7.4-6.3,14.3-13.1,20.6-20.4c-5,8-12.6,13.9-18.8,21c-4.9,3.9-10.2,7.3-16.1,9.4c-13.3,4.7-27.3,6.1-41.2,7.7
		c3.8,12.1,7.7,24.2,11.6,36.3c2.3-5.1,1.9-11,4.3-16.1c2.3-3.6,5.5-6.6,8.3-9.8c2.3-2.6,5.6-4.4,9.2-3.9c-3.4,1.9-7.1,3.4-9.5,6.5
		c-3.3,4.2-7.4,8.3-7.8,13.9c-0.6,6-1.9,12-1.5,18c1.4,6.5,4,12.6,5.8,19c2.5,7.6,4.9,15.3,7.4,22.8c4.4-0.1,8.7,0.1,13,0.6
		c3.3,1,5.7,3.6,7.9,6.1c1.6,2,3.4,4,4,6.5c0.6,3.4,0.2,6.9,0.2,10.3c2.7,2.8,6.5,4.5,8.9,7.7c3.6,4.6,5.9,10.3,5.8,16.2
		c-0.1,2.4-0.3,4.9-0.4,7.3c2.4,2,4.7,4.2,6.4,6.9c1.7,4,1.5,8.4,1.6,12.7c0.9,2,2.5,3.4,3.9,5c3.8,0.4,8.4,0.6,10.5,4.4
		c3.5,5.8,0.7,12.5,0.2,18.7c1.2,5.3,3.9,10.1,5.8,15.2c5.8,15.2,11.2,30.9,12,47.3c-12.2,12.1-25.2,23.7-40.1,32.4h-5.9
		c14.9-10.3,30.5-20.1,43-33.3c-1.9-14.2-5.2-28.2-10.2-41.5c-1.8-4.9-4-9.7-6.1-14.5c-3.4-8.2-6.6-16.5-10.7-24.4
		c-1.9-3.6-4.8-6.5-7.5-9.4c-8.3-9-16.6-18.1-24.6-27.4c-2-2.3-3.7-5-6.2-6.9c-3.5-2.3-7.9-2-11.7-3.4
		c-16.1-7.3-32.8-14.7-50.7-15.9c-1.2,1.3-2.4,2.6-3.6,3.9c13.4,4.1,27.2,7.3,40.3,12.3c1.5,0.6,3,1.4,4.5,2.2
		c-5.6-0.9-10.9-3.1-16.4-4.6c-10.1-3-20.3-6-30.8-7.8c-10.8,10.3-20,22.9-23.6,37.6c19.1,16.7,35.9,35.9,51.6,55.8
		c6.8,7.8,14,15.3,20.8,23.2c11.5,13.6,22.7,27.6,32.9,42.3c2.7,4,5.9,7.7,8.6,11.6h-3.3c-1.4-1.3-2.8-2.6-3.9-4.1
		c-22.3-30.6-46.3-60-72.8-87.2c-11.6-11.7-23.8-23-37-33c-2.6-1.9-5.1-4.4-8.6-4.3c45.7,36.2,85.4,79.9,117.4,128.6h-4
		c-10.3-13.3-20.5-26.9-32.2-39c-3.4-3.1-6.9-7-11.9-7.5c-22.6-2.8-45.3-5.6-68.1-6.5c-3.2-0.2-6.5-0.2-9.7,0.1
		c10,17.6,19.8,35.4,30.1,52.9h-2.2c-10-16.6-19.7-33.4-29.9-50c0.1,1.8,0.1,3.8,1.2,5.4c8.6,14.8,17,29.7,25.6,44.6h-2.7
		c-8.6-15.4-17.4-30.7-26.3-46c0.1-3.3,0.5-6.6,1.2-9.8c3.4,0.1,6.8,0.1,10.2,0c0.7,0,2.2-0.1,2.9-0.1c-2.3-3.2-4.9-6.1-7.7-8.8
		c-5.1-5-10-10.2-15.7-14.4c-2.3-1.8-5.2-2.3-8-3.2c-6.8-2.7-13.9-4.8-20.9-7.1c-3.6-1.3-7.4-0.4-11,0.1c-6.9,1.1-13.9,2-20.7,4
		c-8.3-2.3-16.8-4-25.2-6c-14.3-3-28.6-6.6-43.2-7.4c-17.3-1.3-34.7-2.5-52.1-1.4c-5,0-9.4,2.7-13.2,5.6
		c-11.8,8.3-23.4,17-33.5,27.4c-1.1,0.9-2.1,1.8-3.2,2.7c9.2-12,20.4-22.3,32.7-31c4.2-2.7,8.2-6.3,13.4-6.9
		c9.9-1.2,19.8-0.8,29.8-0.7c6.7-11.4,18.1-18.5,28.9-25.2c-2.4-1.1-4.8-2.2-7.1-3.3c-5.7-2.8-10.3-7.2-14.4-11.8
		c-3.2-4-6.1-8.3-8.1-13c-0.2-3.2-1.4-7.8,1.8-9.9c3.7-2,7.8,0.3,11.3,1.5c7.6,3.1,15.4,6.3,23.7,6.8c-3.2-10.2-6.7-20.3-9.7-30.5
		c-6.3-19.5-12.2-39.1-17.3-58.9c-1.6-6.5-3.6-13.3-2.1-20.1c1.1-4.9,5-9.1,9.9-10.1c13.3-3.1,26.5-6.2,39.8-9.2
		c0.9-0.2,2.6-0.6,3.4-0.8c3.3-0.8,6.7-1.6,10-2.3l0.8-0.2c1-0.3,2-0.5,3.1-0.8c10.7-2.4,21.4-4.9,32.1-7.3c1.6-0.4,3.3-0.8,4.9-1.2
		c3-0.7,5.9-1.3,8.9-2c2.5-0.6,5.1-1.2,7.6-1.8c4.2-0.9,8.5-1.8,12.7-2.8c8.7-2.1,17.5-3.8,26.1-6C317.8,393.3,309.6,385,305,374.8
		 M364,395.8c-36.4,7.5-72.7,15.9-108.9,24.2c-24.7,5.8-49.5,11.4-74,17.7c-4.7,0.9-8.7,4.5-9.6,9.3c-1.6,6.2,1,12.3,2.7,18.2
		c7.2,23.9,14.3,47.8,21.5,71.6c1.7,5.9,3.6,11.7,5.3,17.6c7.1-0.3,14.2-0.8,21.3,0.1c3.1,0.4,6,1.8,8.2,4.1
		c4.9-4.1,10-9.1,16.7-9.7c4.5,0.4,9,1.4,13.2,3c3.4,1.3,7.1,0.7,10.6,1.6c2.2,1.3,4.1,3.2,6.1,4.8c2.5,2.3,5.7,4.1,6.9,7.5
		c4.9-4.1,10.2-7.7,15.3-11.6c2-1.5,4.3-3.5,7.1-2.9c15,5.9,27.7,16.2,40.4,25.9c3.1-10.1,8-19.7,14.8-27.8
		c4.8-5.8,9.4-11.8,14.6-17.3c7.7,0.1,15.3,1.7,22.6,3.6c-0.4-7.1-0.1-14.5-3.1-21c-1.8-4.3-3.2-9.9,0.1-13.8
		c8.3-1.1,16.4,4.1,21.3,10.5c2.9,4.1,5.6,8.6,6.2,13.7c0.6,5.7,0.4,11.4,0.2,17.1c2-3.7,3.1-7.9,4.3-12c0.7-3.3,1.9-6.9,0.6-10.2
		c-1.6-4.4-3-8.9-4.6-13.4c-10-30.9-20.5-61.7-30.7-92.6c-1.5-4.8-2.1-10-4.7-14.4c-1.8-3.5-5.2-6.8-9.4-6.5
		C373.9,393.5,369,394.8,364,395.8 M395.6,506.2c-0.6,3.8,1.3,7.3,2.5,10.8c2.3,6.1,2.2,12.8,2.1,19.2c3.5,1.2,7,2.4,10.6,3.6
		l-0.1,0.1c3.7,1.3,7.2,3,10.9,4.3c0.2-5.7,0.1-11.4-0.3-17.1c-0.3-5.8-3.2-11.2-7-15.5c-3.9-4.1-8.8-7.7-14.3-9.1
		C397.7,501.7,395.7,503.9,395.6,506.2 M430.2,518.5c0.6,1.1,1.4,2.2,0.8,3.5c-0.3,4.5-1.4,9-2.8,13.3c-1.1,3.4-2.6,6.6-3.9,9.9
		c5,4.7,12.7,2.9,18.4,6.3c3.5,3.4,6.2,7.6,9.7,11.1c0.1-3.8,0.1-7.7,0.1-11.5c-0.1-6.7,0-13.3-0.5-20c-0.3-5.8-5-10.2-9.8-12.8
		C438.2,517,433.7,515.8,430.2,518.5 M454,541.4c0.2,6.2,0,12.4,0.1,18.6c0.1,1.8-0.7,4,0.5,5.5c3.1,4,6.5,7.6,9.7,11.5
		c0.8-2.3,1.3-4.6,1.7-6.9c1-6.4,0.9-13.2-1.9-19.1C462.2,546.7,458.5,543.1,454,541.4 M160.2,551.1c-0.4,5.4,3,9.8,5.9,13.9
		c1.6,2,3.1,4.3,5.3,5.9c5,6,12.1,10.2,19.6,12.3c3.1-1.7,6.4-3.1,9.5-4.8c1.8-0.8,3.8-1.1,5.8-1c-13.8,6.4-27.6,13.7-38.3,24.7
		c-2.2,2.3-4.7,4.5-6,7.5c11,0.3,21.9,1.2,32.9,2.2c-0.1-0.9-0.2-2.8-0.3-3.7c0.4-5.3,1.5-10.6,3.4-15.7
		c6.8-13.6,18.1-24.6,30.9-32.6c-0.2-2.2-3.2-2.7-4.9-3.4c-7.9-1.2-16-0.7-24.1-0.5c-7.4,0.9-14.4-1.9-21.4-4
		c-4.6-1.4-8.8-4.4-13.6-5C162.4,546.3,160,548.5,160.2,551.1 M231.9,560.9c-8.8,6.4-17.3,13.3-24.3,21.7c-2.7,3.3-5.3,6.7-6.8,10.7
		l-0.3,0.1c-1.5,6.1-3.5,12.3-2.6,18.6c15.3,2.5,30.4,5.6,45.5,9.3c1.9-8,5.5-15.4,9.8-22.3c3-4.2,6.1-8.4,9.6-12.2
		c-0.6-2.4-1.3-5.3,0.9-7.1c5.4-4.8,11.3-9.1,17.4-12.9c-2.6-4.3-6.6-7.8-10.9-10.3c-7.5-1.1-14.8-3-22.2-4.8
		C241.5,552.2,236.5,556.9,231.9,560.9 M301.4,555.6c-5.5,4.1-10.7,8.6-16.5,12.3c-7.1,4.1-14.3,8.3-20,14.3
		c-1.3,1.6-0.4,3.9,1.1,4.9c8.2,6.9,16.5,13.8,25.2,20l-0.1,0.8c-0.9-0.4-1.8-0.7-2.7-0.9c-6.5-5.4-13.8-9.7-20.6-14.7
		c-1.4,1.5-2.8,3-4.1,4.6c-1.3,1.6-2.6,3.1-3.9,4.7l-0.2-1.6c2.3-2.8,4.3-5.8,6.9-8.3c-0.8-0.8-1.6-1.6-2.5-2.3
		c-7.6,10-15.5,20.7-18,33.2c3.7,0.3,7.2,2.5,10.9,1.3c7-1.7,14.1-3.2,21.3-4.3c5.9-1.2,11.1,2.3,16.6,3.6
		c-0.9-4.5-1.4-9.1-0.3-13.6l0,0c2-1.7-0.2-2.8-1.3-3.6c-3.9-2.5-7.8-5.2-11.6-7.9c5.5,0.9,9.2,5.6,14.2,7.5
		c9.5-7.2,19.7-13.4,29.5-20c6.1-3.5,15.3-6.5,20.9-0.7c11.7,9.5,22.7,19.8,33.6,30c-1.4-2.8-3.7-4.8-5.7-7.1
		c-3.2-3.5-6.2-7.2-9.7-10.3c-13.9-12.6-28.3-24.8-44.3-34.7c-3-2.4-6.4-4.4-9.9-6.1c-1.4-0.8-2.6,0.5-3.7,1.1
		c-6.7,4.5-13.1,9.6-19.6,14.4c-5.4,3.4-10.8,7-15.5,11.4c-1.8,1.4-0.8,3.8-0.9,5.8c-2.7-1.8-3-6-0.5-8.1c5.3-5.2,12.2-8.4,18-12.9
		c6.1-4.6,12.6-8.5,18.6-13.3C305.1,555.1,302.9,554.2,301.4,555.6 M466.9,571.6c0,0.5,0.1,1.6,0.1,2.1c-0.5,1.7-0.8,3.5-1.1,5.2
		c2.8,2.9,5.3,5.9,8.2,8.7c0.1-1.4,0.1-2.8,0.2-4.2C474.1,578.7,472.3,572.7,466.9,571.6 M327.2,588.4c-8.1,4.8-15.8,10.1-23.7,15.2
		c-2,1.2-3.9,2.4-5.4,4.1c3.6-0.3,6.9,1.6,9.6,3.7c6,4.7,11.7,9.6,17.3,14.7c7.9,8.8,15.6,17.7,23.5,26.5c1.5,1.6,2.7,3.4,4.5,4.6
		c13.4,0.9,26.7,1.9,40,3.9c6.6,1,13.4,1.5,19.9,3.3c2.2,1.8,4,4.1,6.3,5.8c-1.5-2.8-3.8-5-5.8-7.5c-14.6-18-30.3-35-47.1-50.9
		c-9-8.3-18.3-16.5-28.4-23.6C334.8,585.7,330.4,586.4,327.2,588.4 M481.9,597.3c2.5,4.9,4.9,9.8,7,14.9c1.2-3.8,1.9-8.3,0.1-12
		C487.6,597.6,484.6,597.2,481.9,597.3 M295.7,613.7c1.7-0.4,3.7-0.9,5,0.7c12.3,10.7,23.4,22.6,34.9,34.2c2.3,2.4,3.8,5.4,5.8,8
		c2.5,0.1,5.1,0.2,7.6,0.3c-5.3-7.2-11.7-13.5-17.9-19.9c-5.5-5.5-10.8-11.4-17-16.1c-4.7-3.6-9.2-7.4-14.1-10.7
		C297.9,610.2,296.9,612.4,295.7,613.7 M297.3,622.1c0.4,3,4.3,3.5,6.8,3.1c0.9,0.6,1.9,1.2,2.8,1.7c-1.1-0.9-2.1-1.9-3.5-2.2
		c-0.2-0.9-0.4-1.8-0.6-2.7l0.2,2.9c-0.6-0.3-1.8-0.9-2.4-1.2c-0.2-2.1-0.3-4.6-1.9-6.1C295.8,617.2,296.5,620.7,297.3,622.1
		L297.3,622.1z"/>
	<path class="st0" d="M585.5,386c1.7,6.8,2.4,13.8,3.2,20.7c-2.7,18.4-10.2,35.5-19,51.7c-0.9,1.7-1.8,3.4-2.8,5.1
		c-2.9,4.5-5.5,9.2-8.7,13.5c2.2-4.9,4.5-9.8,6.5-14.7c5.4-9,8.1-19.3,11.2-29.2C580.7,417.7,583.1,401.8,585.5,386L585.5,386z"/>
	<path class="st0" d="M469.4,412.5c5.6-7.4,10-15.7,16.5-22.4c-1.4,4.8-3.4,9.4-4.5,14.3c-1.4,5.2-2.6,10.8-6.1,15
		c-3.5,3.6-7.9,6.1-11.6,9.4c-5.4,4-10.3,8.9-15.8,12.7l-0.1-1.6c0.2-0.4,0.7-1.3,1-1.7c1.8-1.7,3.6-3.3,5.1-5.3
		C459,426.1,464.3,419.4,469.4,412.5L469.4,412.5z"/>
	<path class="st13" d="M278.6,391.5c2.9,6,5.1,12.2,8.8,17.8c-2.5,0.6-5.1,1.2-7.6,1.8c-0.4-3.5-0.7-7-1.4-10.5
		C278.3,397.6,278.5,394.6,278.6,391.5L278.6,391.5z"/>
	<path class="st53" d="M364,395.8c5-0.9,10-2.2,15.1-2.6c4.2-0.2,7.6,3,9.4,6.5c2.6,4.4,3.1,9.6,4.7,14.4
		c10.2,30.9,20.6,61.7,30.7,92.6c-2.4,1.3-4.7,2.9-6.8,4.7c-4.9-6.4-13-11.6-21.3-10.5c-2.3-1-4.5-2.5-7-2.3
		c-2.5,10.2,2.3,20.4,4.5,30.2c-7.5-2.2-15.3-3.5-23.2-3.7c-2.2-0.3-3.3,2-4.6,3.4c-8.4,12-15.2,24.9-22.5,37.6
		c-9.3-6.6-18.4-13.5-27.7-20.2c-3.3-2.5-6.9-5-11.2-5c-7.1-0.2-13,4.1-18.6,7.9c-9.1-5.4-20.1-5.5-30.4-5.4
		c-5.8-0.1-11.7,2-17.4,0.2c-8.6-2.8-17.7-3.9-26.6-5.5c-5.1-0.7-10.2-2.1-15.4-1.3c-7.2-23.9-14.4-47.7-21.5-71.6
		c-1.7-5.9-4.4-12-2.7-18.2c0.9-4.8,5-8.3,9.6-9.3c24.6-6.3,49.3-11.9,74-17.7C291.3,411.7,327.5,403.3,364,395.8 M297.9,468.9
		c-2.5,2-3.4,5.2-4.4,8.1c-3.3-2.9-4.8-8.3-9.5-9c0.5,3.1,3.4,4.7,5.3,6.8c2,1.9,3.1,4.5,4,7.1c-2,2.3-3.4,5-3.5,8.1
		c-0.8,8.7-3.1,17.3-2.5,26c0.4,4.7,0.6,10.1,4.1,13.7c4.4,4.4,10.4,7.5,16.7,7.3c2.5-0.5,4.3-2.8,6.9-3c2.5-0.5,5.3-0.8,6.9-2.9
		c2.3-3,3.9-6.5,5-10.1c0.9-2.9-0.3-5.9-1.1-8.7c-4.5-0.4-10-1.1-12.4-5.6c-2-3.7,0.5-7.6,0.4-11.3c-2.3-2.7-5.2-4.8-7.3-7.7
		c-2-2.5-3.8-6-7.5-6.3c-1.6-0.5-4.4,0.2-4-2.4c4.3-2.9,7.9-7.4,7.9-12.8C301.2,467.1,299.4,467.8,297.9,468.9L297.9,468.9z"/>
	<path class="st11" d="M217.7,403.5c0.4-2.6,1.1-5.1,1.8-7.6c1.8,9.1,4.1,18.3,8.6,26.4c0.5,0,1.5,0.1,2,0.1
		c-3.3,0.8-6.7,1.5-10,2.3C218.8,417.8,217.7,410.7,217.7,403.5L217.7,403.5z"/>
	<path class="st13" d="M442.3,420.4c5.9-2.1,11.2-5.5,16.1-9.4c-0.1,0.5-0.4,1.4-0.5,1.8c-7.5,7.6-15.1,15-23.4,21.8
		c-3.5-0.5-6.9,1.4-9.2,3.9c-2.9,3.2-6,6.1-8.3,9.8c-2.4,5.1-2,11-4.3,16.1c-3.9-12.1-7.7-24.2-11.6-36.3
		C415,426.5,429,425,442.3,420.4 M414.1,439.2c-3.4,2.5-3.8,7.1-2.6,10.9c0.6-2.6,0.8-5.3,2.1-7.6c3.5-4.1,8.3-7,11.4-11.5
		C420.8,432.9,417.8,436.5,414.1,439.2L414.1,439.2z"/>
	<path class="st11" d="M434.5,434.5c8.3-6.7,15.9-14.1,23.4-21.8c-1.5,6.6-4.1,12.8-6.7,19c-7.5,2.1-15.3,7.5-16.7,15.7
		c-0.9,4.2,0.6,8.4,2.4,12.1c-4.6,8.9-9,17.9-13.5,26.8c-0.9,1.8-1.5,3.7-1.9,5.6c-1.8-6.4-4.4-12.5-5.8-19c-0.4-6,0.9-12,1.5-18
		c0.4-5.6,4.5-9.7,7.8-13.9C427.4,437.9,431.1,436.4,434.5,434.5L434.5,434.5z"/>
	<path class="st10" d="M546.9,417.4c0.2-0.3,0.8-1,1-1.3c4,2.3,7.8,4.8,11.2,7.9l0.2,1.6C555.3,422.8,551.5,419.5,546.9,417.4
		L546.9,417.4z"/>
	<path class="st13" d="M542.4,423.9c1.5-2.2,3-4.4,4.6-6.5c4.5,2.1,8.3,5.3,12.4,8.1l-0.2-1.6c0.9,0.8,1.9,1.7,2.8,2.6
		c-1.9,1.1-0.1,4,1.8,3.4l0.9-0.1c0.3,0.5,1,1.5,1.3,2l-1.4-0.3c1.7,4,3.2,8,4.6,12.1c-0.9,6.3-3.1,12.3-4.4,18.6
		c-2.1,5-4.4,9.8-6.5,14.7c3.2-4.3,5.8-9,8.7-13.5c1.2,11.7-3.9,22.8-7.7,33.6c-3.5,12.2-10.3,23-16.2,34.1
		c7.1-6.1,11-14.9,15.2-23.1c2.4,2.7,4.9,5.4,6.2,8.9c0.7,1.3-0.4,2.5-0.9,3.6c-4,6.2-10.2,10.5-15.1,15.9c-5.3,6-11.7,11-17.8,16.1
		c-6.5,5-12.8,10.4-19.8,14.7c1.5-2.3,3-4.5,4.7-6.6c13.3-16.3,24.4-34.3,34.2-52.9c2-4,4.4-7.9,4.8-12.5
		c2.1-23.1-2.1-47.2-13.7-67.4C541.3,426.5,541.8,425.2,542.4,423.9L542.4,423.9z"/>
	<path class="st1" d="M537.8,428c1.2-1.7,2.9-2.9,4.6-4.1c-0.6,1.3-1.1,2.6-1.6,3.9c-3.2,6.3-6.3,12.7-8.6,19.4
		c-4,11.8-11.9,21.7-17.1,33c-2,4.1-3.5,8.4-5.9,12.2c0.4-8.7,3.7-17,4.7-25.6c1.2-4.1,2.5-8.3,4.7-12
		C524.3,445.3,531.1,436.7,537.8,428L537.8,428z"/>
	<path class="st13" d="M126.3,425.2c5.3,12.1,13,25.4,26.6,29.2c-3,11.1,1.3,22.1,3.1,33c-10.1-9.6-17-22-22.5-34.6
		C130.2,443.8,126.9,434.7,126.3,425.2L126.3,425.2z"/>
	<path class="st10" d="M563.8,430c-1.9,0.6-3.7-2.3-1.8-3.4c0.5,0.5,1.5,1.6,2,2.2C563.9,429.1,563.8,429.7,563.8,430L563.8,430z"/>
	<path class="st11" d="M532.2,447.1c2.3-6.7,5.4-13.1,8.6-19.4c11.6,20.3,15.8,44.3,13.7,67.4c-0.3,4.5-2.8,8.5-4.8,12.5
		c-9.8,18.6-20.9,36.6-34.2,52.9c-1.8,2.1-3.3,4.3-4.7,6.6c-1.1,0.9-2.1,1.7-3.2,2.6c0,0.2-0.2,0.7-0.2,1c15.4-8.5,28-20.9,42.2-31
		c-1.6,9.6-4.3,19-6.3,28.5c-2.3,8.4-3,17.3-6.8,25.3c-6.2,12.9-12.6,25.8-19.4,38.5c-2.3,5.5-6.7,9.4-11.8,12.3
		c5-11.6,9.3-23.5,13.6-35.3c1.8-5.3,4.1-10.5,5.3-16c-5.5,7.6-9.1,16.5-15.3,23.6c1.1-5.3,3.9-10,5.6-15
		c4.9-13.2,10.3-26.2,14.6-39.5c-8.7,8.5-19.5,14.7-30.7,19.1c5-6.6,7.8-14.6,8.6-22.8c-8.9,8.8-21,13-32.2,18.1
		c-1.7-2.6-4-4.8-6.4-6.9c0.1-2.4,0.3-4.9,0.4-7.3c11.6-1.5,22.1-6.9,32.6-11.8c6.3-3.5,13-6.6,18.8-11c-9.2,2.3-18.6,3.1-28,2.9
		c-5.1-0.1-9.9-1.9-15-2.6c-7.6-1.1-15.4-1.4-23-1.4c0-3.4,0.4-6.9-0.2-10.3c-0.6-2.5-2.4-4.6-4-6.5c9.4-11.3,18.7-22.7,27.9-34.1
		c3.7-4.8,7.6-9.4,11.3-14.3l1.4-0.4c-5,11.5-11.8,22.1-18,33c-2.5,4.5-5.8,8.6-7.6,13.5c4.8-4.3,8.5-9.7,12.4-14.9
		c10.2-14.8,19.3-30.4,27.5-46.4c2-3.6,4-7.2,5.3-11.1c1.5-2.5,3.3-4.9,5.1-7.2c-4,19.6-10.3,38.8-13.9,58.5c1.6-3.2,2.6-6.6,3.7-10
		c1.6-4.9,3.9-9.4,5.4-14.3c1.1-2.4,2.3-4.7,3.5-7c-1.1,8.6-4.4,16.9-4.7,25.6c2.4-3.9,3.9-8.2,5.9-12.2
		C520.3,468.9,528.2,459,532.2,447.1L532.2,447.1z"/>
	<path class="st54" d="M414.1,439.2c3.6-2.7,6.7-6.3,10.9-8.2c-3.1,4.5-7.9,7.3-11.4,11.5c-1.3,2.4-1.4,5.1-2.1,7.6
		C410.3,446.4,410.8,441.7,414.1,439.2L414.1,439.2z"/>
	<path class="st13" d="M434.5,447.5c1.4-8.2,9.1-13.6,16.7-15.7c-0.9,2.1-1.6,4.3-2.5,6.4c-0.2,0.4-0.7,1.3-1,1.7
		c-3.8,6.5-7.3,13.1-10.8,19.7C435.1,455.8,433.6,451.7,434.5,447.5L434.5,447.5z"/>
	<path class="st10" d="M564.6,431.6l1.4,0.3c1.9,2.7,2.9,5.9,3.7,9c-0.2,0.9-0.3,1.8-0.5,2.8C567.8,439.6,566.2,435.6,564.6,431.6
		L564.6,431.6z"/>
	<path class="st55" d="M489.1,473.1c7-8.8,13.3-18.1,20.9-26.3c-1.3,3.9-3.3,7.5-5.3,11.1c-8.2,16-17.3,31.6-27.5,46.4
		c-3.8,5.2-7.6,10.5-12.4,14.9c1.8-4.9,5.1-8.9,7.6-13.5c6.2-10.9,13-21.5,18-33L489.1,473.1L489.1,473.1z"/>
	<path class="st10" d="M566.9,463.5c0.9-1.7,1.9-3.4,2.8-5.1c1.7,16.3-5.9,31.3-10.2,46.6c2.8,3,5.8,6,7.8,9.6c1.3,2.1,1.5,4.9,0,7
		c-4.1,5.1-9.5,9-13.6,14c-5.1,19.7-8.2,40-14.2,59.4c1,15.3,2.6,30.7,3.6,46c0,5.7,0.2,11.7-2.2,16.9c-2.8,5-6.1,9.8-9.1,14.8
		c-8.7,13.4-17.2,27.1-27.6,39.4h-4.3c5.2-4.3,8.4-10.4,12.3-15.8c8.2-12.1,16.4-24.3,24.4-36.5c3.3-4.8,3.6-11,3.5-16.6
		c-0.9-14.2-2.1-28.3-3.4-42.4c-6.7,10.8-11.9,22.6-19.6,32.7L517,632c6.7-12.7,13.2-25.5,19.4-38.5c3.8-7.9,4.5-16.8,6.8-25.3
		c2.1-9.5,4.7-18.9,6.3-28.5c-14.2,10.1-26.8,22.5-42.2,31c0.1-0.3,0.2-0.7,0.2-1c1.1-0.9,2.1-1.8,3.2-2.6c7-4.3,13.3-9.7,19.8-14.7
		c6.2-5.1,12.5-10,17.8-16.1c4.9-5.4,11.1-9.7,15.1-15.9c0.5-1.1,1.6-2.4,0.9-3.6c-1.3-3.4-3.8-6.2-6.2-8.9c-4.1,8.2-8,17-15.2,23.1
		c5.9-11.1,12.7-21.9,16.2-34.1C563.1,486.3,568.1,475.2,566.9,463.5L566.9,463.5z"/>
	<path class="st13" d="M130.2,464.9c4.8,6.7,8.4,14.2,13,21c6.5,9.7,12.7,19.8,21.1,27.9c6.9,5.8,13.2,12.3,20.8,17.3
		c1-2.3,1.6-4.7,1.1-7.2c3,10.2,6.4,20.3,9.7,30.5c-8.3-0.5-16.1-3.7-23.7-6.8c-9-16.3-18.4-32.3-26.9-48.8
		C139.9,487.6,133.6,476.8,130.2,464.9L130.2,464.9z"/>
	<path class="st17" d="M297.9,468.9c1.5-1.2,3.3-1.9,5-2.7c0,5.5-3.6,9.9-7.9,12.8c-0.4,2.5,2.4,1.9,4,2.4c3.6,0.2,5.5,3.7,7.5,6.3
		c2,2.9,5,5,7.3,7.7c0.2,3.7-2.4,7.7-0.4,11.3c2.4,4.5,7.9,5.2,12.4,5.6c0.8,2.8,2,5.8,1.1,8.7c-1.1,3.6-2.6,7.1-5,10.1
		c-1.6,2.1-4.5,2.5-6.9,2.9c-2.6,0.3-4.4,2.5-6.9,3c-6.3,0.2-12.3-2.9-16.7-7.3c-3.5-3.6-3.7-9-4.1-13.7c-0.5-8.8,1.8-17.3,2.5-26
		c0.1-3.1,1.5-5.8,3.5-8.1c-0.9-2.6-2-5.2-4-7.1c-1.9-2.1-4.8-3.7-5.3-6.8c4.7,0.8,6.3,6.2,9.5,9C294.5,474.2,295.4,471,297.9,468.9
		L297.9,468.9z"/>
	<path class="st11" d="M432.5,512.7c7-5.8,13.5-12.1,20.7-17.6c-3.3,7.1-7.5,13.6-11.3,20.4c-4.3-0.5-8.7-0.7-13-0.6
		C430.1,514.2,431.4,513.5,432.5,512.7L432.5,512.7z"/>
	<path class="st56" d="M388.6,498.6c2.5-0.2,4.8,1.3,7,2.3c-3.3,3.9-2,9.5-0.1,13.8c3,6.6,2.7,14,3.1,21c-7.4-2-15-3.6-22.6-3.6
		c-5.2,5.5-9.9,11.5-14.6,17.3c-6.8,8.1-11.6,17.8-14.8,27.8c-12.7-9.7-25.4-20-40.4-25.9c-2.8-0.6-5,1.4-7.1,2.9
		c-5.1,3.9-10.4,7.5-15.3,11.6c-1.1-3.4-4.3-5.3-6.9-7.5c-2-1.6-3.9-3.5-6.1-4.8c-3.5-0.9-7.2-0.3-10.6-1.6c-4.3-1.6-8.7-2.5-13.2-3
		c-6.7,0.6-11.8,5.6-16.7,9.7c-2.2-2.3-5.1-3.7-8.2-4.1c-7.1-0.9-14.2-0.4-21.3-0.1c-1.7-5.9-3.6-11.7-5.3-17.6
		c5.2-0.8,10.3,0.6,15.4,1.3c8.9,1.5,18,2.6,26.6,5.5c5.7,1.8,11.6-0.3,17.4-0.2c10.3-0.1,21.3,0,30.4,5.4
		c5.6-3.8,11.5-8.2,18.6-7.9c4.3,0,7.9,2.5,11.2,5c9.2,6.8,18.3,13.6,27.7,20.2c7.3-12.6,14.2-25.6,22.5-37.6
		c1.2-1.4,2.3-3.7,4.6-3.4c7.8,0.2,15.6,1.6,23.2,3.7C391,518.9,386.1,508.8,388.6,498.6L388.6,498.6z"/>
	<path class="st5" d="M395.6,506.2c0.1-2.3,2.1-4.4,4.5-3.8c5.6,1.4,10.4,5,14.3,9.1c0.3,5.2,1.5,10.3,0.9,15.5
		c-0.3,4.6-2.6,8.6-4.5,12.7c-3.5-1.2-7.1-2.4-10.6-3.6c0.1-6.4,0.2-13.1-2.1-19.2C396.9,513.5,395.1,510,395.6,506.2L395.6,506.2z"
		/>
	<path class="st56" d="M417,511.4c2-1.9,4.3-3.4,6.8-4.7c1.6,4.4,3,8.9,4.6,13.4c1.3,3.3,0.1,6.9-0.6,10.2c-1.1,4.1-2.2,8.2-4.3,12
		c0.1-5.7,0.3-11.4-0.2-17.1C422.6,520,419.9,515.5,417,511.4L417,511.4z"/>
	<path class="st3" d="M414.4,511.6c3.8,4.3,6.7,9.6,7,15.5c0.3,5.7,0.5,11.4,0.3,17.1c-3.7-1.3-7.2-3-10.9-4.3l0.1-0.1
		c1.9-4,4.2-8.1,4.5-12.7C415.9,521.9,414.7,516.7,414.4,511.6L414.4,511.6z"/>
	<path class="st5" d="M430.2,518.5c3.4-2.6,8-1.5,11.8-0.2c4.8,2.6,9.4,7,9.8,12.8c0.6,6.6,0.4,13.3,0.5,20
		c-10.1-1.1-17.9-8.4-24.2-15.8c1.4-4.3,2.5-8.8,2.8-13.3C431.6,520.6,430.8,519.5,430.2,518.5L430.2,518.5z"/>
	<path class="st13" d="M129.9,544c5.5-4.3,9.8-10,15.4-14.3c-0.6,4.9-2.8,9.3-5.1,13.6c-4.5,8.2-9.3,16.1-14.4,23.9
		c3.7,2.9,8.2,4.5,12.4,6.6c-3.8,0.4-7.6,0.4-11.3-0.1c-2.2-0.2-4.6-0.8-6.7,0.2c-10.7,5.6-18.5,15-27.9,22.3
		c-2.8-4-5.4-8.2-7.4-12.6c3.3-5.5,6.5-11.1,11.2-15.5c6.1-6.4,13.4-11.5,20.9-16C121.6,549.9,126.1,547.4,129.9,544L129.9,544z"/>
	<path class="st3" d="M424.2,545.2c1.3-3.3,2.8-6.6,3.9-9.9c6.3,7.4,14.1,14.7,24.2,15.8c0,3.8,0.1,7.7-0.1,11.5
		c-3.5-3.5-6.1-7.7-9.7-11.1C436.9,548,429.2,549.9,424.2,545.2L424.2,545.2z"/>
	<path class="st11" d="M374.4,539.4c1.2-1.3,2.4-2.6,3.6-3.9c17.9,1.2,34.6,8.6,50.7,15.9c3.8,1.4,8.2,1.1,11.7,3.4
		c2.5,1.9,4.1,4.6,6.2,6.9c8,9.3,16.3,18.4,24.6,27.4c2.7,2.9,5.7,5.8,7.5,9.4c4.1,7.9,7.3,16.2,10.7,24.4c2.1,4.8,4.3,9.5,6.1,14.5
		c-1.3,1.5-2.5,3-3.9,4.5c-7.3-18.3-16.8-35.8-29.1-51.2c-3-3.5-5.1-7.6-7.8-11.4c-5.5-7.4-12.1-14.5-20.7-18.1
		c7.4,5.1,13.8,11.6,19.2,18.9c-0.1,0.4-0.4,1.2-0.6,1.6c5.1,8.3,12.1,15.2,17.3,23.4c7.8,11.7,13.9,24.3,19.3,37.2
		c-0.9,2.7-3.8,3.7-6,5.1c-14.3,8.3-31,10.9-47.3,11c-5.1,0-10.1-0.5-15.2-0.1c-6.8-7.9-13.9-15.4-20.8-23.2
		c-15.7-19.9-32.5-39.1-51.6-55.8c3.6-14.7,12.8-27.4,23.6-37.6c10.4,1.8,20.6,4.8,30.8,7.8c5.5,1.5,10.8,3.7,16.4,4.6
		c-1.5-0.8-3-1.6-4.5-2.2C401.5,546.7,387.8,543.4,374.4,539.4L374.4,539.4z"/>
	<path class="st13" d="M454,538.3c7.7-0.1,15.4,0.3,23,1.4c5,0.7,9.8,2.5,15,2.6c9.4,0.2,18.9-0.6,28-2.9c-5.8,4.4-12.5,7.5-18.8,11
		c-10.5,4.9-21,10.4-32.6,11.8c0.1-5.9-2.3-11.6-5.8-16.2C460.5,542.9,456.8,541.2,454,538.3L454,538.3z"/>
	<path class="st5" d="M454,541.4c4.5,1.7,8.2,5.3,10.2,9.6c2.8,5.9,2.8,12.7,1.9,19.1c-0.3,0.3-0.9,0.8-1.2,1.1
		c-4.2-3-8.1-6.7-10.7-11.3C454,553.8,454.2,547.6,454,541.4L454,541.4z"/>
	<path class="st5" d="M160.2,551.1c-0.2-2.6,2.2-4.8,4.8-4.3c4.9,0.6,9,3.6,13.6,5c6.9,2.1,14,4.9,21.4,4c8-0.1,16.1-0.7,24.1,0.5
		c1.7,0.8,4.7,1.2,4.9,3.4c-12.8,8-24.2,19-30.9,32.6c-1.8,5-2.9,10.3-3.4,15.7c-9.1,0.2-19.3,0.4-26.6-5.9
		c10.7-11,24.5-18.4,38.3-24.7c-2-0.1-3.9,0.3-5.8,1c-4.7-1.7-9.6-1.9-14.4-3c-5.1-0.9-9.7-3.3-14.7-4.4c-2.1-1.5-3.6-3.8-5.3-5.9
		C163.1,560.9,159.8,556.4,160.2,551.1L160.2,551.1z"/>
	<path class="st11" d="M231.9,560.9c4.7-4,9.6-8.7,16.1-9.2c7.4,1.7,14.7,3.7,22.2,4.8c4.3,2.6,8.3,6,10.9,10.3
		c-6.1,3.8-12,8.1-17.4,12.9c-2.2,1.8-1.5,4.7-0.9,7.1c-3.5,3.8-6.6,8-9.6,12.2c-15.2-10.6-35.1-10.8-52.3-5.8
		c1.5-4,4.1-7.4,6.8-10.7C214.6,574.3,223.1,567.3,231.9,560.9 M232,570.1c-5.1,4.9-10.7,9.7-14.1,16c10-9.8,19.6-20.2,31.7-27.5
		c1.4-0.9,3.4-1.6,3.5-3.6C245.2,558.8,238.6,564.5,232,570.1L232,570.1z"/>
	<path class="st6" d="M232,570.1c6.6-5.6,13.2-11.3,21-15.1c-0.1,2-2,2.7-3.5,3.6c-12.1,7.2-21.7,17.7-31.7,27.5
		C221.3,579.8,226.9,575,232,570.1L232,570.1z"/>
	<path class="st57" d="M301.4,555.6c1.5-1.4,3.6-0.5,5.4-0.6c-6,4.7-12.5,8.7-18.6,13.3c-5.9,4.5-12.7,7.7-18,12.9
		c-2.5,2.1-2.1,6.3,0.5,8.1c1,0.9,2,1.7,3,2.6c2.5,2.2,5.1,4.4,8,6.1c3.9,2.6,7.7,5.3,11.6,7.9c1.1,0.8,3.3,1.9,1.3,3.6
		c-1.1-0.8-2.2-1.6-3.3-2.4c-8.8-6.2-17-13.1-25.2-20c-1.5-1.1-2.4-3.4-1.1-4.9c5.7-6,12.9-10.2,20-14.3
		C290.7,564.2,295.9,559.7,301.4,555.6L301.4,555.6z"/>
	<path class="st13" d="M140.7,566.8c5.9-4,12.5-6.8,18.4-10.9c2,4.8,4.9,9,8.1,13C158.3,569.6,149.4,568.5,140.7,566.8L140.7,566.8z
		"/>
	<path class="st11" d="M306.7,557.8c1.1-0.6,2.4-1.9,3.7-1.1c3.5,1.7,6.9,3.7,9.9,6.1c-12,1.7-22,9.2-31.4,16.2
		c-5.4,4-9.8,9.1-15.2,13c-1-0.9-2-1.7-3-2.6c0-1.9-0.9-4.3,0.9-5.8c4.7-4.4,10.1-8,15.5-11.4C293.6,567.4,299.9,562.3,306.7,557.8
		L306.7,557.8z"/>
	<path class="st13" d="M474.7,576.4c11.2-5.1,23.2-9.3,32.2-18.1c-0.8,8.2-3.6,16.2-8.6,22.8c11.3-4.5,22-10.6,30.7-19.1
		c-4.3,13.4-9.7,26.4-14.6,39.5c-1.7,5.1-4.5,9.8-5.6,15c6.2-7.1,9.8-16,15.3-23.6c-1.1,5.5-3.5,10.7-5.3,16
		c-4.3,11.9-8.5,23.7-13.6,35.3c5-2.8,9.5-6.8,11.8-12.3l0.1,1.3c7.8-10.1,12.9-21.9,19.6-32.7c1.3,14.1,2.4,28.3,3.4,42.4
		c0.1,5.7-0.2,11.8-3.5,16.6c-8,12.2-16.2,24.4-24.4,36.5c-3.9,5.4-7.1,11.5-12.3,15.8h-31.3c14.9-8.8,27.9-20.3,40.1-32.4
		c-0.8-16.4-6.2-32.1-12-47.3c-1.8-5.1-4.6-9.9-5.8-15.2c0.5-6.2,3.2-12.9-0.2-18.7c-2-3.8-6.7-4-10.5-4.4c-1.4-1.6-3.1-3.1-3.9-5
		C476.3,584.8,476.4,580.4,474.7,576.4L474.7,576.4z"/>
	<path class="st58" d="M454.1,560c2.6,4.5,6.5,8.2,10.7,11.3c0.3-0.3,0.9-0.8,1.2-1.1c-0.4,2.3-0.9,4.6-1.7,6.9
		c-3.2-3.9-6.6-7.6-9.7-11.5C453.4,563.9,454.2,561.8,454.1,560L454.1,560z"/>
	<path class="st12" d="M434.1,561.1c8.6,3.6,15.3,10.7,20.7,18.1c2.7,3.7,4.8,7.8,7.8,11.4c12.3,15.4,21.8,33,29.1,51.2
		c3.6,9.4,6.4,19,8.8,28.7c0.7,2.8,1,5.7,1.2,8.5c-3.3-12.5-7.7-24.8-12.4-36.9c-5.4-12.9-11.6-25.5-19.3-37.2
		c-5.3-8.2-12.2-15.2-17.3-23.4c0.1-0.4,0.4-1.2,0.6-1.6C447.9,572.8,441.5,566.3,434.1,561.1L434.1,561.1z"/>
	<path class="st13" d="M288.9,578.9c9.5-7,19.5-14.5,31.4-16.2c16,9.9,30.4,22.1,44.3,34.7c3.5,3.2,6.5,6.9,9.7,10.3
		c2,2.3,4.3,4.3,5.7,7.1c-11-10.3-22-20.6-33.6-30c-5.6-5.8-14.8-2.8-20.9,0.7c-9.9,6.6-20,12.9-29.5,20c-5.1-1.9-8.8-6.7-14.2-7.5
		c-2.9-1.8-5.5-3.9-8-6.1C279.1,588,283.5,582.9,288.9,578.9L288.9,578.9z"/>
	<path class="st3" d="M171.4,570.8c5,1.1,9.6,3.5,14.7,4.4c4.8,1.1,9.8,1.4,14.4,3c-3.1,1.7-6.4,3.1-9.5,4.8
		C183.5,581,176.4,576.8,171.4,570.8L171.4,570.8z"/>
	<path class="st5" d="M466.9,571.6c5.4,1.1,7.2,7,7.4,11.8c-2.5-3.2-4.8-6.5-7.3-9.8C467,573.2,466.9,572.1,466.9,571.6L466.9,571.6
		z"/>
	<path class="st59" d="M467,573.7c2.5,3.2,4.7,6.6,7.3,9.8c-0.1,1.4-0.1,2.8-0.2,4.2c-2.9-2.8-5.4-5.8-8.2-8.7
		C466.2,577.2,466.6,575.4,467,573.7L467,573.7z"/>
	<path class="st13" d="M131.8,596.9c14.4-10.5,32.3-15,49.8-16.1c2.4,1.1,4.8,2.1,7.1,3.3c-10.9,6.8-22.3,13.9-28.9,25.2
		c-9.9-0.2-19.9-0.5-29.8,0.7c-5.2,0.6-9.2,4.2-13.4,6.9c-12.3,8.7-23.5,19-32.7,31c1.1-0.9,2.2-1.8,3.2-2.7
		c1.3-0.2,2.5-0.6,3.6-1.3c7.3-5.1,14.4-10.5,22.3-14.9c-7.6,8.1-16.6,15-23.1,24.1l0.1-1.2c-5.9,5.8-10.4,12.8-15.3,19.5
		c-4.4-3.7-8.1-8-11.6-12.6c-4.2-5.3-5-12.6-3.6-19c0.1,0.6,0.3,1.9,0.4,2.6c11.2-8.2,23-15.5,35.1-22.3c2.8-1.4,5.6-2.9,8.1-4.9
		c-3.8,0.4-7.5,1.3-11.3,1.8c5.1-4.2,11.3-6.5,17.5-8.7C117.5,606.1,125,602,131.8,596.9L131.8,596.9z"/>
	<path class="st17" d="M336.8,583.5c3.5-0.1,6,2.4,8.6,4.3c13.2,10,25.3,21.3,37,33c26.5,27.1,50.5,56.6,72.8,87.2
		c1.1,1.5,2.5,2.8,3.9,4.1h-4.8C422.2,663.4,382.5,619.7,336.8,583.5L336.8,583.5z"/>
	<path class="st11" d="M327.2,588.4c3.2-2,7.6-2.7,10.7-0.3c10,7.1,19.3,15.3,28.4,23.6c16.9,15.8,32.6,32.9,47.1,50.9
		c1.9,2.5,4.3,4.7,5.8,7.5c-2.3-1.7-4.1-4-6.3-5.8c-6.5-1.8-13.3-2.3-19.9-3.3c-13.3-1.9-26.6-2.9-40-3.9c-1.8-1.2-3-3-4.5-4.6
		c-7.9-8.8-15.6-17.7-23.5-26.5c-5.6-5.1-11.4-10-17.3-14.7c-2.7-2.2-6-4-9.6-3.7c1.5-1.7,3.5-2.9,5.4-4.1
		C311.3,598.5,319.1,593.2,327.2,588.4L327.2,588.4z"/>
	<path class="st13" d="M200.7,593.3c17.2-5,37.1-4.8,52.3,5.8c-4.3,6.9-7.8,14.3-9.8,22.3c-15-3.7-30.2-6.9-45.5-9.3
		c-0.9-6.3,1.1-12.5,2.6-18.6L200.7,593.3L200.7,593.3z"/>
	<path class="st57" d="M246.1,622.6c2.5-12.6,10.4-23.2,18-33.2c0.8,0.8,1.6,1.5,2.5,2.3c-2.6,2.5-4.7,5.5-6.9,8.3
		c-4.7,6.1-8.9,12.8-11.1,20.2C248.3,621.6,247.5,622.4,246.1,622.6L246.1,622.6z"/>
	<path class="st11" d="M263.8,596.9c1.3-1.6,2.7-3.1,4.1-4.6c6.8,5,14.1,9.3,20.6,14.7c-2.1-0.5-4.3-1.1-6.2-2.1
		C276.2,602,270,599.4,263.8,596.9L263.8,596.9z"/>
	<path class="st13" d="M259.8,601.6c1.4-1.5,2.7-3.1,3.9-4.7c6.2,2.5,12.4,5.1,18.5,8c2,1,4.1,1.6,6.2,2.1c0.9,0.3,1.8,0.6,2.7,0.9
		l0.1-0.8c1.1,0.8,2.2,1.6,3.3,2.4l0,0c-1.2,4.5-0.6,9.1,0.3,13.6c-5.5-1.3-10.8-4.8-16.6-3.6c-7.1,1.1-14.2,2.6-21.3,4.3
		c-3.7,1.3-7.3-1-10.9-1.3c1.4-0.2,2.2-1,2.4-2.4c2.2-7.4,6.4-14.1,11.1-20.2L259.8,601.6L259.8,601.6z"/>
	<path class="st60" d="M481.9,597.3c2.6-0.1,5.7,0.3,7.1,2.9c1.8,3.7,1.1,8.2-0.1,12C486.9,607,484.5,602.1,481.9,597.3L481.9,597.3
		z"/>
	<path class="st3" d="M162,609.5c1.3-3,3.8-5.2,6-7.5c7.4,6.4,17.5,6.2,26.6,5.9c0.1,0.9,0.2,2.8,0.3,3.7
		C183.9,610.7,173,609.8,162,609.5L162,609.5z"/>
	<path class="st27" d="M295.7,613.7c1.2-1.3,2.2-3.6,4.3-3.5c4.9,3.3,9.4,7.1,14.1,10.7c6.3,4.7,11.5,10.6,17,16.1
		c6.2,6.4,12.5,12.8,17.9,19.9c-2.5,0-5.1-0.1-7.6-0.3c-1.9-2.7-3.5-5.6-5.8-8c-11.4-11.6-22.6-23.5-34.9-34.2
		C299.4,612.8,297.4,613.4,295.7,613.7L295.7,613.7z"/>
	<path class="st11" d="M120.7,617.7c3.9-2.9,8.2-5.6,13.2-5.6c17.4-1.2,34.8,0,52.1,1.4c14.6,0.8,28.9,4.4,43.2,7.4
		c8.4,2,16.9,3.8,25.2,6c5.7,5.7,13.5,8.6,21.2,10.6c9,2.1,18.3,3.2,27.6,2.5c-6.5-5.5-13.6-10.3-19.2-16.9c0.5-0.1,1.6-0.3,2.1-0.4
		c7,2.2,14.1,4.3,20.9,7.1c9.3,9.1,19.9,16.7,28.4,26.5c-3.4,0.1-6.8,0-10.2,0c-0.7,3.2-1,6.5-1.2,9.8c-6.2,0.1-12.3-1.1-18.4-2
		c10.1,17.5,22.4,33.6,36.7,47.9h-46.1c-16.7-2.6-33.4-6.3-50.4-6.8c-9.9-0.4-19.3-3.4-29-5.1c-15.9-2-31.2-7.2-47-9.6
		c6.7,3.1,14,4.4,21,6.8c7.9,2.6,16,4,24.2,5.2c9.1,1.3,17.9,4.2,26.8,6.4c10.8,1.3,21.8,1.3,32.6,3.1H75.3
		c-2.4-2.6-4.6-5.5-5.1-9.1c-0.8-7.2,2.5-14.1,2.7-21.2c3.5-10.7,11.1-19.3,17-28.7c6.5-9.1,15.4-16,23.1-24.1
		c-7.8,4.3-15,9.7-22.3,14.9c-1.1,0.7-2.3,1.1-3.6,1.3C97.3,634.8,108.9,626.1,120.7,617.7L120.7,617.7z"/>
	<path class="st61" d="M297.3,622.1c-0.8-1.5-1.5-5,1.3-4.4c1.7,1.5,1.7,4.1,1.9,6.1c0.6,0.3,1.8,0.9,2.4,1.2l-0.2-2.9
		c0.2,0.9,0.4,1.8,0.6,2.7c1.4,0.2,2.5,1.3,3.5,2.2c-0.9-0.6-1.9-1.2-2.8-1.7C301.6,625.6,297.7,625.2,297.3,622.1L297.3,622.1z"/>
	<path class="st13" d="M275.1,622.9c3.6-0.5,7.4-1.4,11-0.1c-0.5,0.1-1.6,0.3-2.1,0.4c5.6,6.5,12.7,11.3,19.2,16.9
		c-9.2,0.7-18.6-0.3-27.6-2.5c-7.6-2-15.5-4.9-21.2-10.6C261.2,624.9,268.2,624,275.1,622.9L275.1,622.9z"/>
	<path class="st13" d="M307,629.8c2.7,0.9,5.7,1.4,8,3.2c5.7,4.2,10.6,9.4,15.7,14.4c2.8,2.7,5.4,5.7,7.7,8.8
		c-0.7,0-2.2,0.1-2.9,0.1C326.9,646.6,316.3,638.9,307,629.8L307,629.8z"/>
	<path class="st13" d="M495.6,637.3c5,13.4,8.3,27.4,10.2,41.5c-12.6,13.2-28.1,23-43,33.3h-0.4c-2.8-4-5.9-7.6-8.6-11.6
		c-10.2-14.7-21.4-28.6-32.9-42.3c5.1-0.4,10.1,0.1,15.2,0.1c16.3-0.1,33-2.7,47.3-11c2.2-1.4,5.1-2.4,6-5.1
		c4.8,12.1,9.1,24.3,12.4,36.9c-0.2-2.9-0.5-5.8-1.2-8.5c-2.4-9.7-5.2-19.4-8.8-28.7C493,640.3,494.3,638.8,495.6,637.3L495.6,637.3
		z"/>
	<path class="st57" d="M328.3,659.2c3.2-0.3,6.5-0.3,9.7-0.1c22.8,0.9,45.5,3.7,68.1,6.5c4.9,0.4,8.4,4.3,11.9,7.5
		c11.7,12.1,21.9,25.7,32.2,39h-4c-8.8-11.9-17.3-24-27.6-34.6c-2.5-2.4-4.9-5.4-8.6-5.5c-23.6-3.2-47.3-6.4-71.2-5.7
		c8.1,15.4,16.1,30.7,24.8,45.8h-5.2C348.1,694.6,338.3,676.8,328.3,659.2L328.3,659.2z"/>
	<path class="st57" d="M326.3,662.1c10.2,16.5,19.9,33.4,29.9,50h-3.1c-8.6-14.8-17-29.8-25.6-44.6
		C326.4,665.9,326.4,664,326.3,662.1L326.3,662.1z"/>
	<path class="st13" d="M305.8,664.2c6.1,0.8,12.2,2,18.4,2c8.9,15.3,17.7,30.6,26.3,46h-8C328.2,697.8,315.8,681.6,305.8,664.2
		L305.8,664.2z"/>
	<path class="st6" d="M338.9,666.3c23.9-0.7,47.6,2.6,71.2,5.7c3.7,0.1,6.2,3.1,8.6,5.5c10.2,10.7,18.8,22.8,27.6,34.6h-3.8
		c-6.7-9-13.8-17.8-21.2-26.2c-3-3.3-5.9-6.8-9.5-9.6c-3.5-2.1-7.7-2.6-11.7-3.5c-18.6-3-37.5-3.5-56.3-3.4
		c2.2,6.1,5.6,11.5,8.7,17.2c4.8,8.5,9.7,17.1,14.7,25.6h-3.6C355,697,346.9,681.7,338.9,666.3L338.9,666.3z"/>
	<path class="st11" d="M343.8,669.4c18.8-0.1,37.7,0.4,56.3,3.4c3.9,0.9,8.2,1.3,11.7,3.5c3.5,2.8,6.4,6.3,9.5,9.6
		c7.4,8.5,14.5,17.2,21.2,26.2h-75.3c-5-8.5-9.8-17-14.7-25.6C349.4,680.9,346,675.4,343.8,669.4L343.8,669.4z"/>
	<path class="st13" d="M66.7,706.1c1.2-8.3,2.6-16.7,6.3-24.3c-0.3,7.2-3.5,14-2.7,21.2c0.4,3.6,2.7,6.5,5.1,9.1h-6.1
		C68.1,710.2,66.9,708.3,66.7,706.1L66.7,706.1z"/>
	<path class="st10" d="M170,690.6c15.8,2.4,31.1,7.6,47,9.6c9.7,1.7,19.1,4.7,29,5.1c17,0.5,33.6,4.2,50.4,6.8h-21.9
		c-10.8-1.9-21.7-1.8-32.6-3.1c-8.9-2.3-17.7-5.1-26.8-6.4c-8.2-1.2-16.3-2.6-24.2-5.2C184,695,176.7,693.6,170,690.6L170,690.6z"/>
</g>
</svg>
